<?xml version="1.0" encoding="UTF-8"?>
<svg id="Camada_1" xmlns="http://www.w3.org/2000/svg" version="1.1" viewBox="0 0 1099.9 1350">
  <!-- Generator: Adobe Illustrator 29.1.0, SVG Export Plug-In . SVG Version: 2.1.0 Build 142)  -->
  <path d="M856.8,13.7c23.4,4,40,15.3,52.9,35.1,17.6,27.1,35,63.4,48.8,92.8,155.7,332.9,158.6,716.3,7.1,1051.3-15.5,34.3-35.5,76.9-55.9,108.2-12.8,19.7-29.4,31-52.9,35.1-5.3-.4-11.3.6-16.5,0-27.3-3.1-52-24.6-59.6-50.8-11.2-38.8,12-62.6,28.3-94.4,169-328.9,169.4-703.3,0-1032.1-16.4-31.8-39.5-55.7-28.3-94.4,7.5-26,32.4-47.7,59.6-50.8h16.5Z"/>
  <path d="M22.9,895.7v-16.5c2-6.6,3-13.3,5.7-19.7,4.6-11,13.5-22,19.3-32.6,47.4-87.1,52.8-190.3,11.4-281.1-11.7-25.6-30.6-47.4-36.4-75.1.4-5.3-.6-11.3,0-16.5,6.1-54.6,72.2-81.5,115-47.2,20.1,16.1,45.2,67.5,55.4,92.1,53.9,129.9,46.2,273.3-21.6,396.3-18.7,34-39,66.2-83.4,63-32.6-2.3-61.8-30-65.4-62.6Z"/>
  <path d="M582.9,143.9c39.1-3.3,58.5,19,75.9,49.6,163.4,287.5,163.8,655.8,8.7,946.6-14.2,26.5-26.2,53.6-57.5,62.9-57.8,17.1-108.4-38.5-86.4-94.7,4.4-11.4,13.2-23.1,18.9-34.2,123.6-242.1,134.3-517,16.9-764.4-11.1-23.5-39.1-65.3-41.1-88.7-3.3-38.8,25.9-73.7,64.6-77Z"/>
  <path d="M334,263.2c55.4-5.5,76.1,45,95.6,86.6,95.5,203.3,95.4,437.5,0,640.8-9.8,20.8-26.6,57.6-44.1,71.6-44.5,35.7-111.9,5.5-115-51.3-1.7-30.6,25.6-67,38-95.5,69.8-161,68.2-345.1-6.3-504.2-17.7-37.9-46.7-67.7-22.9-111.8s32.1-34,54.6-36.2Z"/>
</svg>