<?xml version="1.0" encoding="UTF-8"?>
<svg id="Camada_1" data-name="Camada 1" xmlns="http://www.w3.org/2000/svg" viewBox="0 0 500 500">
  <defs>
    <style>
      .cls-1 {
        fill: #0038a8;
        fill-rule: evenodd;
      }
    </style>
  </defs>
  <g id="g8">
    <path id="path4" class="cls-1" d="M250.06,0L4.02,166.29l102.41,67.05,122.35-83.15-48.53-32.15,66.48-44.91,144.25,96.53-236.66,160.21,51.19,34.19,294.49-197.75-.66-.67L250.06,0ZM495.41.07l-102.37,68.38,51.19,34.86,51.19-34.86V.07h0ZM2.33,500l102.37-68.37-51.19-34.86L2.33,431.63v68.37h0Z"/>
    <path id="path6" class="cls-1" d="M249.95,499.86l246.03-166.3-102.4-67.05-122.35,83.15,48.53,32.15-66.47,44.92-144.25-96.53,236.66-160.21-51.19-34.19L0,333.54l.66.68,249.28,165.64h0Z"/>
  </g>
</svg>