<?xml version="1.0" encoding="UTF-8"?>
<svg id="Camada_1" xmlns="http://www.w3.org/2000/svg" version="1.1" viewBox="0 0 500 500">
  <!-- Generator: Adobe Illustrator 29.1.0, SVG Export Plug-In . SVG Version: 2.1.0 Build 142)  -->
  <defs>
    <style>
      .st0, .st1 {
        fill: #fff;
      }

      .st1 {
        fill-rule: evenodd;
      }
    </style>
  </defs>
  <g id="g8">
    <path class="st1" d="M398.5,354.1c168.5-136.5-45.6-247.8-269.1-236.9-53.7,99.9-36.1,173.6,14,240-54-41.7-89.8-102.6-60.7-232.1-26.4,5.8-52.9,11.5-79.3,17.3,29-13.1,58.1-26.1,87.1-39.2C207.1-60.7,358.6,1.3,412.5,79.6,287-1.4,194.2,39.9,148.1,95.3c352.6-36.9,440.7,179.6,250.4,258.8Z"/>
    <path class="st1" d="M398.5,354.1c168.5-136.5-45.6-247.8-269.1-236.9-53.7,99.9-36.1,173.6,14,240-54-41.7-89.8-102.6-60.7-232.1-26.4,5.8-52.9,11.5-79.3,17.3,29-13.1,58.1-26.1,87.1-39.2C207.1-60.7,358.6,1.3,412.5,79.6,287-1.4,194.2,39.9,148.1,95.3c352.6-36.9,440.7,179.6,250.4,258.8Z"/>
  </g>
  <rect class="st0" x="205.6" y="344.7" width="24.9" height="155.3"/>
  <rect class="st0" x="256.9" y="272.6" width="49.8" height="227.4"/>
</svg>