<?xml version="1.0" encoding="UTF-8"?>
<svg id="Camada_1" data-name="Camada 1" xmlns="http://www.w3.org/2000/svg" viewBox="0 0 500 500">
  <defs>
    <style>
      .cls-1 {
        fill: #fff;
        fill-rule: evenodd;
      }
    </style>
  </defs>
  <path id="path4" class="cls-1" d="M356.96,235.52l5.51-27.23h-46.99v-37.11l-32.97,5.06v110.98c0,38.37,14.71,49.75,54.92,49.75h17.58l5.51-27h-20.68c-18.27,0-24.24-4.6-24.24-25.05v-49.52c-.23.11,41.36.11,41.36.11h0ZM130.06,158.32v119.26c0,44.23,19.99,62.61,63.42,62.61s65.14-17.92,65.14-62.39v-11.37c0-41.82-18.5-62.16-58.94-62.16-12.87,0-26.88,2.64-36.31,10.23v-61.47l-33.32,5.28ZM194.74,230.93c22.86,0,30.91,9.19,30.91,36.65v10.23c0,26.77-8.04,35.96-31.36,35.96s-31.36-9.19-31.36-36.19v-13.79c0-24.59,8.04-32.86,31.82-32.86h0ZM436.81,204.27c-43.43,0-63.42,18.73-63.42,61.47v6.55c0,40.56,17.35,60.2,58.25,60.2,13.1,0,26.19-2.41,35.39-10v4.83c0,22.86-9.77,30.33-32.51,30.33h-13.67c-7.81.11-11.37,1.61-16.08,9.42h0c-39.18,63.42-107.19,102.14-181.3,102.14-118.34,0-214.5-98.35-214.5-219.21S105.12,30.79,223.46,30.79c83.07,0,158.66,49.17,194.05,125.69h9.88C391.2,74.45,311.35,21.6,223.46,21.6,100.18,21.6,0,124.08,0,250s100.18,228.4,223.46,228.4c72.5,0,139.25-35.5,180.95-94.44h31.94c42.05,0,63.65-16.31,63.65-57.79v-62.61c0-41.36-20.68-59.28-63.19-59.28h0ZM467.26,276.31c0,22.86-7.81,29.87-30.45,29.87-25.39,0-30.45-8.96-30.45-35.5v-4.14c0-26.19,4.48-35.73,30.45-35.73s30.45,9.19,30.45,35.96v9.54Z"/>
</svg>