<?xml version="1.0" encoding="UTF-8"?>
<svg id="Camada_1" data-name="Camada 1" xmlns="http://www.w3.org/2000/svg" viewBox="0 0 500 500">
  <defs>
    <style>
      .cls-1 {
        fill: #fff;
        fill-rule: evenodd;
      }
    </style>
  </defs>
  <path id="path2" class="cls-1" d="M168.8,317.64c8.74-7.65,14.43-17.7,17.11-30.14h86.23c-3.95,35.56-18.27,64.35-42.94,86.39-24.68,22.04-55.06,33.07-91.13,33.07-26.31,0-49.99-5.78-71.05-17.34-21.06-11.55-37.5-27.61-49.31-48.17C5.91,320.89,0,297.82,0,272.22s5.91-48.67,17.72-69.23c11.81-20.56,28.25-36.61,49.31-48.17,21.06-11.56,44.74-17.34,71.05-17.34,35.49,0,65.46,10.63,89.9,31.91,24.43,21.27,38.87,49.15,43.28,83.63h-85c-3.6-11.37-9.77-20.53-18.5-27.46-8.72-6.93-18.5-10.4-29.33-10.4-14.9,0-26.91,5.24-36.04,15.73-9.15,10.49-13.71,24.26-13.71,41.32s4.6,30.68,13.79,41.16c9.21,10.49,21.18,15.72,35.96,15.72,11.52,0,21.65-3.82,30.37-11.45h-.01ZM474.88,247.57c16.74,16.06,25.12,36.83,25.12,62.28,0,29.1-9.63,52.57-28.91,70.38-19.29,17.82-44.69,26.72-76.24,26.72s-56.51-8.94-76.04-26.81c-19.54-17.89-29.29-41.05-29.29-69.54,0-15.55,2.68-31.2,8.04-46.94,5.36-15.74,13.64-32.97,24.86-51.65l39.64-65.91h83.76s-46.9,77.75-46.9,77.75c4.68-.25,8.38-.37,11.09-.37,26.49,0,48.1,8.03,64.86,24.08h.01ZM418.33,333.75c6.03-6.14,9.05-14.1,9.05-23.89s-3.02-17.81-9.05-24.08c-6.04-6.28-13.87-9.41-23.47-9.41s-17.45,3.14-23.47,9.41c-6.05,6.28-9.06,14.3-9.06,24.08s3.01,17.75,9.05,23.89c6.03,6.15,13.87,9.23,23.47,9.23s17.44-3.08,23.47-9.23h.01Z" shape-rendering="geometricPrecision"/>
</svg>