<?xml version="1.0" encoding="UTF-8"?>
<svg id="Camada_1" data-name="Camada 1" xmlns="http://www.w3.org/2000/svg" viewBox="0 0 500 500">
  <defs>
    <style>
      .cls-1 {
        fill: #fff;
      }
    </style>
  </defs>
  <path class="cls-1" d="M407.59,297.55h-90.62c-2.35,0,.27,9.13.72,10.74,2.95,10.5,8.62,17.71,19.39,20.72,15.73,4.4,31.23-1.15,37.91-16.42h31.88c-5.26,25.48-27.27,41.18-52.62,43.01-49.67,3.58-74.89-27.73-71.33-75.63,2.92-39.29,36.64-60.43,74.08-55.4,38.22,5.13,52.37,37.61,50.59,72.98ZM373.93,275.35c-1.52-35.39-54.29-34.27-57.31,0h57.31Z"/>
  <path class="cls-1" d="M156.16,351.28v-77.72c0-6.18-3.8-15.93-8.96-19.7-8.66-6.32-25.19-4.39-32.58,3.23-3.87,3.99-8.6,14.61-8.6,20.05v74.86h-29.01c-.77,0-2.21-.21-2.87-.68-1.26-1.22-.35-1.92-.35-2.54v-121.78c0-.08,1-1.07,1.07-1.07h28.65c.24,0,1.09.95,1.79.72v15.4c0,.13,1.14,1.27,1.42,1.07,13.13-25.22,58.74-27.17,74.11-3.53,3.42,5.26,7.57,17.8,7.57,23.95v87.39c0,.08-1,1.07-1.07,1.07h-29.37c-.24,0-1.09-.95-1.79-.72Z"/>
  <path class="cls-1" d="M270.77,250.99c-2.77,1.42-4.89.02-7.49-.03-3.74-.08-23.7-.63-25.14,1.42l-.35,62.04c.23,13.26,9.45,16.19,21.07,15.28,1.76-.14,12.63-3.28,12.63-.98v22.92c0,3.76-26.47,4.2-29.76,3.97-17.06-1.19-36.14-11.83-36.14-31.19v-138.25c0-.08,1-1.07,1.07-1.07h30.09c.08,0,1.07,1,1.07,1.07v40.11c0,.08,1,1.07,1.07,1.07h30.8c.08,0,1.07,1,1.07,1.07v22.56Z"/>
  <path class="cls-1" d="M499.28,225.21c-.23.7.72,1.55.72,1.79v22.21c0,.08-1,1.07-1.07,1.07h-15.04c-12.48,0-27.58,14.4-27.58,26.86v74.5c0,.08-1,1.07-1.07,1.07h-31.16v-125.36h30.8l1.07,20.77c4.85-8.64,11.32-16.29,20.65-20.18,1.26-.53,7.22-2.74,8.01-2.74h14.68Z"/>
  <path class="cls-1" d="M52.65,227.35l.76,123.97-.57,1.22-30.6.58c-.53.37-1.46-.55-1.46-.78v-102.44c0-.08-1-1.07-1.07-1.07H0v-21.49h52.65Z"/>
  <path class="cls-1" d="M29.18,176.67c2.81-.52,11.86-.54,14.54.16,9.51,2.5,10.46,15.46,9.12,23.49-2.58,15.39-31.93,15.75-33.53-1.23-.79-8.43-.6-20.49,9.87-22.42Z"/>
</svg>