<?xml version="1.0" encoding="UTF-8"?>
<svg id="Camada_1" data-name="Camada 1" xmlns="http://www.w3.org/2000/svg" viewBox="0 0 500 500">
  <defs>
    <style>
      .cls-1 {
        fill: #fff;
      }
    </style>
  </defs>
  <g id="g1">
    <g id="g2">
      <path id="path8" class="cls-1" d="M224.59,499.8c.67-.05,1.7-.05,2.29,0,.59.05.04.1-1.22.1-1.26,0-1.74-.04-1.07-.1h0ZM273.48,499.8c.67-.05,1.7-.05,2.29,0,.59.05.04.1-1.22.1-1.26,0-1.74-.04-1.07-.1h0ZM210.19,499.55c.32-.06.83-.06,1.15,0,.32.06.06.11-.57.11s-.89-.05-.57-.11ZM288.89,499.55c.32-.06.78-.06,1.02,0,.24.06-.02.11-.58.11-.56,0-.76-.05-.44-.12h0ZM201.91,499.3c.25-.06.65-.06.89,0,.25.06.04.12-.45.12s-.69-.05-.45-.12ZM297.16,499.3c.25-.06.65-.06.89,0,.25.06.04.12-.45.12s-.69-.05-.45-.12ZM196.31,499.04c.25-.06.59-.06.76,0s-.03.12-.45.12c-.42,0-.56-.06-.31-.13ZM303.02,499.04c.25-.06.59-.06.76,0,.17.07-.03.12-.45.12-.42,0-.56-.06-.31-.13ZM191.48,498.79c.25-.06.59-.06.76,0s-.03.12-.45.12c-.42,0-.56-.06-.31-.13ZM307.86,498.79c.25-.06.59-.06.76,0,.17.07-.03.12-.45.12-.42,0-.56-.06-.31-.13ZM186.5,498.54c.18-.07.46-.07.64,0s.03.13-.32.13-.49-.06-.32-.13ZM312.7,498.54c.25-.06.59-.06.76,0,.17.07-.03.12-.45.12-.42,0-.56-.06-.31-.13ZM181.67,498.29c.18-.07.46-.07.64,0s.03.13-.32.13-.49-.06-.32-.13ZM317.91,498.29c.18-.07.46-.07.64,0s.03.13-.32.13-.49-.06-.32-.13ZM176.83,498.03c.18-.07.46-.07.64,0s.03.13-.32.13-.49-.06-.32-.13ZM322.77,498.03c.18-.07.4-.06.49.02s-.07.14-.33.13c-.3-.01-.36-.07-.15-.15ZM172.75,497.78c.18-.07.46-.07.64,0s.03.13-.32.13-.49-.06-.32-.13ZM326.59,497.77c.18-.07.4-.06.49.02s-.07.14-.33.13c-.3-.01-.36-.07-.15-.15ZM169.46,497.52c.18-.07.4-.06.49.02.08.08-.07.14-.33.13-.3-.01-.36-.07-.15-.15ZM330.14,497.52c.18-.07.46-.07.64,0s.03.13-.32.13-.49-.06-.32-.13ZM165.88,497.27c.18-.07.46-.07.64,0s.03.13-.32.13-.49-.06-.32-.13ZM333.7,497.27c.18-.07.46-.07.64,0s.03.13-.32.13-.49-.06-.32-.13ZM162.58,497.01c.18-.07.4-.06.49.02.08.08-.07.14-.33.13-.3-.01-.36-.07-.15-.15ZM337.03,497.01c.18-.07.4-.06.49.02s-.07.14-.33.13c-.3-.01-.36-.07-.15-.15ZM159,496.76c.18-.07.46-.07.64,0s.03.13-.32.13-.49-.06-.32-.13ZM340.34,496.75c.18-.07.4-.06.49.02s-.07.14-.33.13c-.3-.01-.36-.07-.15-.15ZM155.96,496.5c.18-.07.4-.06.49.02.08.08-.07.14-.33.13-.3-.01-.36-.07-.15-.15ZM343.14,496.5c.18-.07.4-.06.49.02s-.07.14-.33.13c-.3-.01-.36-.07-.15-.15ZM346.2,496.25c.18-.07.4-.06.49.02s-.07.14-.33.13c-.3-.01-.36-.07-.15-.15ZM349,495.99c.18-.07.4-.06.49.02s-.07.14-.33.13c-.3-.01-.36-.07-.15-.15ZM145.26,495.48c.18-.07.4-.06.49.02.08.08-.07.14-.33.13-.3-.01-.36-.07-.15-.15ZM354.6,495.48c.18-.07.4-.06.49.02s-.07.14-.33.13c-.3-.01-.36-.07-.15-.15ZM137.62,494.72c.18-.07.4-.06.49.02.08.08-.07.14-.33.13-.3-.01-.36-.07-.15-.15ZM35.14,468.6l-.49-.57.57.49c.32.27.57.52.57.57,0,.2-.2.05-.66-.49ZM464.41,468.84s.37-.42.83-.83l.83-.75-.75.83c-.7.77-.91.94-.91.75ZM467.47,465.78s.37-.42.83-.83l.83-.75-.75.83c-.7.77-.91.94-.91.75ZM243.55,395.13c.45-.06,1.25-.06,1.78,0,.53.06.16.1-.82.1-.98,0-1.41-.04-.96-.1h0ZM247.89,395.13c.6-.05,1.52-.05,2.04,0,.52.05.03.1-1.09.1-1.12,0-1.55-.05-.95-.1h0ZM371.4,395.14c.32-.06.83-.06,1.15,0,.32.06.06.11-.57.11s-.89-.05-.57-.11ZM378.27,395.14c.32-.06.78-.06,1.02,0,.24.06-.02.11-.58.11-.56,0-.76-.05-.44-.12h0ZM238.22,394.89c.18-.07.4-.06.49.02.08.08-.07.14-.33.13-.3-.01-.36-.07-.15-.15ZM367.34,394.89c.18-.07.4-.06.49.02s-.07.14-.33.13c-.3-.01-.36-.07-.15-.15ZM162.07,394.63c.18-.07.4-.06.49.02.08.08-.07.14-.33.13-.3-.01-.36-.07-.15-.15ZM172.88,394.63c.25-.06.65-.06.89,0,.25.06.04.12-.45.12s-.69-.05-.45-.12ZM177.61,394.38c.18-.07.4-.06.49.02.08.08-.07.14-.33.13-.3-.01-.36-.07-.15-.15ZM416.85,392.32c.95-.05,2.49-.05,3.44,0,.95.05.17.09-1.72.09s-2.66-.04-1.72-.09ZM409.46,389.46c0-.49.05-.69.12-.45.06.25.06.65,0,.89-.06.25-.12.04-.12-.45ZM280.36,386.15c0-.63.05-.89.11-.57s.06.83,0,1.15c-.06.32-.11.06-.11-.57ZM401.76,386.56c0-.05.2-.25.45-.45.4-.32.41-.31.1.1-.33.42-.54.56-.54.35ZM214.45,383.28l-2.8-2.87,2.87,2.8c2.66,2.6,2.98,2.93,2.8,2.93-.04,0-1.33-1.29-2.87-2.87ZM136.51,384.3l-.75-.83.83.75c.77.7.94.91.75.91-.04,0-.42-.37-.83-.83ZM345.74,383.98c-.62-.63-1.07-1.15-1-1.15s.63.52,1.25,1.15,1.07,1.15,1,1.15-.63-.52-1.25-1.15ZM409.2,381.69c0-.42.06-.56.13-.31.06.25.06.59,0,.76-.07.17-.12-.03-.12-.45ZM280.05,381.16c.01-.3.07-.36.15-.15.07.18.06.4-.02.49s-.14-.07-.13-.33ZM408.26,379.78c.25-.28.52-.51.59-.51s-.08.23-.33.51c-.25.28-.52.51-.59.51s.08-.23.33-.51ZM254.89,369.16c.25-.06.59-.06.76,0,.17.07-.03.12-.45.12-.42,0-.56-.06-.31-.13ZM259.47,369.16c.25-.06.59-.06.76,0,.17.07-.03.12-.45.12-.42,0-.56-.06-.31-.13ZM174.41,365.85c.25-.06.59-.06.76,0s-.03.12-.45.12c-.42,0-.56-.06-.31-.13ZM183.33,365.85c.25-.06.59-.06.76,0s-.03.12-.45.12c-.42,0-.56-.06-.31-.13ZM385.42,365.85c.18-.07.4-.06.49.02s-.07.14-.33.13c-.3-.01-.36-.07-.15-.15ZM390.75,365.86c.18-.07.46-.07.64,0s.03.13-.32.13-.49-.06-.32-.13ZM273.67,363.35c.33-.35.66-.64.73-.64s-.14.29-.47.64-.66.64-.73.64.14-.29.47-.64ZM204.7,360.81c0-.42.06-.56.13-.31.06.25.06.59,0,.76-.07.17-.12-.03-.12-.45h0ZM124.73,358.26c0-.42.06-.56.13-.31.06.25.06.59,0,.76-.07.17-.12-.03-.12-.45h0ZM204.2,357.75c0-.56.05-.76.12-.44.06.32.06.78,0,1.02s-.11-.02-.11-.58ZM333.31,355.71c0-.42.06-.56.13-.31.06.25.06.59,0,.76-.07.17-.12-.03-.12-.45ZM4.75,355.18c.01-.3.07-.36.15-.15.07.18.06.4-.02.49-.08.08-.14-.07-.13-.33ZM314.53,348.07c0-4.06.04-5.69.08-3.61.04,2.07.04,5.4,0,7.39-.04,1.99-.08.29-.08-3.77ZM4.5,352.38c.01-.3.07-.36.15-.15.07.18.06.4-.02.49-.08.08-.14-.07-.13-.33ZM279.56,351c0-.35.06-.49.13-.32s.07.46,0,.64-.13.03-.13-.32ZM495.5,350.09c.01-.3.07-.36.15-.15.07.18.06.4-.02.49s-.14-.07-.13-.33ZM4.24,349.58c.01-.3.07-.36.15-.15.07.18.06.4-.02.49-.08.08-.14-.07-.13-.33ZM369.95,349.07c.01-.3.07-.36.15-.15.07.18.06.4-.02.49s-.14-.07-.13-.33ZM161.19,346.55c0-1.12.05-1.55.1-.95.05.6.05,1.52,0,2.04-.05.52-.1.03-.1-1.09h0ZM495.76,347.29c.01-.3.07-.36.15-.15.07.18.06.4-.02.49s-.14-.07-.13-.33ZM407.64,346.27c.01-.3.07-.36.15-.15.07.18.06.4-.02.49s-.14-.07-.13-.33ZM124.53,342.47c0-1.68.04-2.34.09-1.45.05.88.05,2.26,0,3.06-.05.8-.09.08-.09-1.6h0ZM369.76,342.09c0-.91.05-1.28.1-.83s.06,1.2,0,1.66-.1.08-.1-.83ZM3.48,341.94c.01-.3.07-.36.15-.15.07.18.06.4-.02.49-.08.08-.14-.07-.13-.33ZM496.27,341.69c.01-.3.07-.36.15-.15.07.18.06.4-.02.49s-.14-.07-.13-.33ZM279.86,339.8c0-1.05.04-1.48.1-.96.05.53.05,1.38,0,1.91-.05.53-.1.1-.1-.96ZM333.11,336.1c0-2.66.04-3.72.08-2.34.05,1.37.05,3.55,0,4.84-.05,1.29-.08.17-.08-2.5h0ZM496.52,338.12c.01-.3.07-.36.15-.15.07.18.06.4-.02.49s-.14-.07-.13-.33ZM407.98,334.07c0-1.96.04-2.73.09-1.71.05,1.02.05,2.63,0,3.57-.05.94-.09.1-.09-1.86h0ZM266.22,336.56c.46-.06,1.2-.06,1.66,0s.08.1-.83.1-1.28-.05-.83-.1ZM275.77,336.57c.25-.06.65-.06.89,0,.25.06.04.12-.45.12s-.69-.05-.45-.12ZM2.97,335.32c.01-.3.07-.36.15-.15.07.18.06.4-.02.49-.08.08-.14-.07-.13-.33ZM496.8,334.7c0-.35.06-.49.13-.32s.07.46,0,.64-.13.03-.13-.32ZM2.72,332.01c.01-.3.07-.36.15-.15.07.18.06.4-.02.49-.08.08-.14-.07-.13-.33ZM213.56,332.06c0-.05.2-.25.45-.45.4-.32.41-.31.1.1-.33.42-.54.56-.54.35ZM497.03,331.5c.01-.3.07-.36.15-.15.07.18.06.4-.02.49s-.14-.07-.13-.33ZM216.11,329.51c0-.05.2-.25.45-.45.4-.32.41-.31.1.1-.33.42-.54.56-.54.35ZM497.29,328.7c.01-.3.07-.36.15-.15.07.18.06.4-.02.49s-.14-.07-.13-.33ZM2.46,328.19c.01-.3.07-.36.15-.15.07.18.06.4-.02.49-.08.08-.14-.07-.13-.33ZM497.54,325.39c.01-.3.07-.36.15-.15.07.18.06.4-.02.49s-.14-.07-.13-.33ZM2.23,324.52c0-.35.06-.49.13-.32s.07.46,0,.64-.13.03-.13-.32ZM497.82,320.95c0-.35.06-.49.13-.32s.07.46,0,.64-.13.03-.13-.32ZM1.97,320.19c0-.35.06-.49.13-.32s.07.46,0,.64-.13.03-.13-.32ZM498.07,316.37c0-.35.06-.49.13-.32s.07.46,0,.64-.13.03-.13-.32ZM1.72,315.35c0-.35.06-.49.13-.32s.07.46,0,.64-.13.03-.13-.32ZM254.01,314.67c.18-.07.4-.06.49.02s-.07.14-.33.13c-.3-.01-.36-.07-.15-.15ZM262.65,313.9c.32-.06.83-.06,1.15,0,.32.06.06.11-.57.11s-.89-.05-.57-.11ZM272.59,313.9c.32-.06.78-.06,1.02,0,.24.06-.02.11-.58.11-.56,0-.76-.05-.44-.12h0ZM314.24,312.42c0-.84.05-1.15.11-.7.06.46.06,1.15,0,1.53-.06.38-.1,0-.1-.83h0ZM498.33,311.53c0-.35.06-.49.13-.32s.07.46,0,.64-.13.03-.13-.32ZM1.46,310.76c0-.35.06-.49.13-.32s.07.46,0,.64-.13.03-.13-.32ZM498.56,307.05c.01-.3.07-.36.15-.15.07.18.06.4-.02.49s-.14-.07-.13-.33ZM1.21,306.18c0-.35.06-.49.13-.32s.07.46,0,.64-.13.03-.13-.32ZM498.83,302.61c0-.35.06-.49.13-.32s.07.46,0,.64-.13.03-.13-.32ZM.95,302.11c0-.35.06-.49.13-.32s.07.46,0,.64-.13.03-.13-.32ZM210.8,301.34c0-.35.06-.49.13-.32s.07.46,0,.64-.13.03-.13-.32ZM160.96,298.35v-2.99s15.67,0,15.67,0h15.66s-15.59.07-15.59.07l-15.59.07-.08,2.93-.08,2.93v-2.99ZM275.16,300.9c-.32-.4-.31-.41.1-.1.25.19.45.39.45.45,0,.21-.21.07-.54-.35ZM499.11,297.52c0-.49.05-.69.12-.45.06.25.06.65,0,.89-.06.25-.12.04-.12-.45ZM.71,297.14c0-.42.06-.56.13-.31.06.25.06.59,0,.76-.07.17-.12-.03-.12-.45ZM115.13,295.48l-9.17-.14,9.09-.06c5.85-.04,9.15.03,9.25.2.09.14.12.23.08.2-.04-.03-4.2-.12-9.25-.2ZM242.55,293.53c.18-.07.4-.06.49.02.08.08-.07.14-.33.13-.3-.01-.36-.07-.15-.15ZM261.14,293.53c.18-.07.4-.06.49.02s-.07.14-.33.13c-.3-.01-.36-.07-.15-.15ZM247.12,293.27c.32-.06.78-.06,1.02,0,.24.06-.02.11-.58.11-.56,0-.76-.05-.44-.12h0ZM256.28,293.27c.32-.06.83-.06,1.15,0,.32.06.06.11-.57.11s-.89-.05-.57-.11ZM499.37,290.26c0-.56.05-.76.12-.44.06.32.06.78,0,1.02-.06.24-.11-.02-.11-.58h0ZM.47,289.75c0-.56.05-.76.12-.44.06.32.06.78,0,1.02-.06.24-.11-.02-.11-.58ZM499.64,279.69c0-.91.05-1.28.1-.83s.06,1.2,0,1.66-.1.08-.1-.83ZM.23,279.69c0-.77.05-1.09.11-.7s.06,1.02,0,1.4c-.06.39-.11.07-.11-.7ZM300.88,278.74c-.32-.4-.31-.41.1-.1.25.19.45.39.45.45,0,.21-.21.07-.54-.35ZM210.81,274.73c0-.42.06-.56.13-.31.06.25.06.59,0,.76-.07.17-.12-.03-.12-.45h0ZM-.02,265.31c0-1.12.05-1.55.1-.95.05.6.05,1.52,0,2.04-.05.52-.1.03-.1-1.09ZM242.55,265c.18-.07.4-.06.49.02.08.08-.07.14-.33.13-.3-.01-.36-.07-.15-.15ZM245.59,264.76c.18-.07.46-.07.64,0s.03.13-.32.13-.49-.06-.32-.13ZM249.68,264.5c.18-.07.4-.06.49.02s-.07.14-.33.13c-.3-.01-.36-.07-.15-.15h0ZM265.45,264.5c.18-.07.46-.07.64,0s.03.13-.32.13-.49-.06-.32-.13ZM254.63,264.24c.25-.06.59-.06.76,0,.17.07-.03.12-.45.12-.42,0-.56-.06-.31-.13ZM261.12,264.25c.18-.07.46-.07.64,0s.03.13-.32.13-.49-.06-.32-.13ZM499.92,250.53c0-3.64.04-5.1.08-3.23.04,1.86.04,4.84,0,6.62-.04,1.78-.08.25-.08-3.39h0ZM70.9,254.05c.18-.07.4-.06.49.02.08.08-.07.14-.33.13-.3-.01-.36-.07-.15-.15ZM58.95,249.2c-.32-.4-.31-.41.1-.1.25.19.45.39.45.45,0,.21-.21.07-.54-.35ZM88.27,248.8s.37-.42.83-.83l.83-.75-.75.83c-.7.77-.91.94-.91.75ZM57.42,247.67c-.32-.4-.31-.41.1-.1.25.19.45.39.45.45,0,.21-.21.07-.54-.35ZM160.96,242c0-3.43.04-4.84.08-3.12s.04,4.52,0,6.24-.08.31-.08-3.12ZM52.14,235.89c0-.35.06-.49.13-.32.07.18.07.46,0,.64s-.13.03-.13-.32ZM124.64,235.72c.18-.07.4-.06.49.02.08.08-.07.14-.33.13-.3-.01-.36-.07-.15-.15h0ZM-.01,233.09c0-1.33.04-1.88.1-1.21s.05,1.75,0,2.42-.1.12-.1-1.21ZM94.96,233.09c0-.77.05-1.09.11-.7s.06,1.02,0,1.4-.11.07-.11-.7ZM52.14,229.78c0-.35.06-.49.13-.32.07.18.07.46,0,.64s-.13.03-.13-.32ZM499.64,221.25c0-.98.05-1.35.1-.82s.05,1.33,0,1.78c-.06.45-.1.02-.1-.96h0ZM.23,219.08c0-.77.05-1.09.11-.7s.06,1.02,0,1.4c-.06.39-.11.07-.11-.7ZM71.13,212.28c.45-.06,1.25-.06,1.78,0,.53.06.16.1-.82.1-.98,0-1.41-.04-.96-.1h0ZM499.37,210.42c0-.63.05-.89.11-.57s.06.83,0,1.15c-.06.32-.11.06-.11-.57ZM.47,209.79c0-.56.05-.76.12-.44s.06.78,0,1.02c-.06.24-.11-.02-.11-.58ZM.71,203.42c0-.42.06-.56.13-.31s.06.59,0,.76c-.07.17-.12-.03-.12-.45ZM499.11,203.04c0-.49.05-.69.12-.45.06.25.06.65,0,.89-.06.25-.12.04-.12-.45ZM.95,198.45c0-.35.06-.49.13-.32s.07.46,0,.64-.13.03-.13-.32ZM498.84,197.82c0-.42.06-.56.13-.31s.06.59,0,.76-.12-.03-.12-.45ZM1.21,193.62c0-.35.06-.49.13-.32s.07.46,0,.64-.13.03-.13-.32ZM498.58,193.11c0-.35.06-.49.13-.32s.07.46,0,.64-.13.03-.13-.32ZM1.46,188.78c0-.35.06-.49.13-.32s.07.46,0,.64-.13.03-.13-.32ZM498.33,188.27c0-.35.06-.49.13-.32s.07.46,0,.64-.13.03-.13-.32ZM1.72,184.45c0-.35.06-.49.13-.32s.07.46,0,.64-.13.03-.13-.32ZM498.07,183.68c0-.35.06-.49.13-.32s.07.46,0,.64-.13.03-.13-.32ZM1.95,180.22c.01-.3.07-.36.15-.15.07.18.06.4-.02.49-.08.08-.14-.07-.13-.33ZM497.82,179.1c0-.35.06-.49.13-.32s.07.46,0,.64-.13.03-.13-.32ZM2.23,176.04c0-.35.06-.49.13-.32s.07.46,0,.64-.13.03-.13-.32ZM497.56,175.03c0-.35.06-.49.13-.32s.07.46,0,.64-.13.03-.13-.32ZM2.48,172.22c0-.35.06-.49.13-.32s.07.46,0,.64-.13.03-.13-.32ZM497.29,171.57c.01-.3.07-.36.15-.15.07.18.06.4-.02.49-.08.08-.14-.07-.13-.33ZM2.72,168.51c.01-.3.07-.36.15-.15.07.18.06.4-.02.49-.08.08-.14-.07-.13-.33ZM497.03,168.26c.01-.3.07-.36.15-.15.07.18.06.4-.02.49-.08.08-.14-.07-.13-.33ZM496.78,164.94c.01-.3.07-.36.15-.15.07.18.06.4-.02.49-.08.08-.14-.07-.13-.33ZM2.97,164.69c.01-.3.07-.36.15-.15.07.18.06.4-.02.49-.08.08-.14-.07-.13-.33ZM3.23,161.38c.01-.3.07-.36.15-.15.07.18.06.4-.02.49-.08.08-.14-.07-.13-.33ZM496.27,158.32c.01-.3.07-.36.15-.15.07.18.06.4-.02.49-.08.08-.14-.07-.13-.33ZM3.48,158.07c.01-.3.07-.36.15-.15.07.18.06.4-.02.49-.08.08-.14-.07-.13-.33ZM3.99,152.97c.01-.3.07-.36.15-.15.07.18.06.4-.02.49-.08.08-.14-.07-.13-.33ZM4.24,150.43c.01-.3.07-.36.15-.15.07.18.06.4-.02.49-.08.08-.14-.07-.13-.33ZM4.5,147.63c.01-.3.07-.36.15-.15.07.18.06.4-.02.49-.08.08-.14-.07-.13-.33ZM495.25,146.86c.01-.3.07-.36.15-.15.07.18.06.4-.02.49-.08.08-.14-.07-.13-.33ZM4.75,144.83c.01-.3.07-.36.15-.15.07.18.06.4-.02.49-.08.08-.14-.07-.13-.33ZM33.13,33.43c.83-.84,1.57-1.53,1.64-1.53s-.55.69-1.38,1.53c-.83.84-1.57,1.53-1.64,1.53s.55-.69,1.38-1.53ZM148.57,4.22c.18-.07.4-.06.49.02.08.08-.07.14-.33.13-.3-.01-.36-.07-.15-.15ZM154.18,3.71c.18-.07.4-.06.49.02.08.08-.07.14-.33.13-.3-.01-.36-.07-.15-.15ZM345.69,3.71c.18-.07.4-.06.49.02.08.08-.07.14-.33.13-.3-.01-.36-.07-.15-.15ZM157.23,3.46c.18-.07.4-.06.49.02.08.08-.07.14-.33.13-.3-.01-.36-.07-.15-.15ZM342.63,3.46c.18-.07.4-.06.49.02.08.08-.07.14-.33.13-.3-.01-.36-.07-.15-.15ZM160.29,3.2c.18-.07.4-.06.49.02.08.08-.07.14-.33.13-.3-.01-.36-.07-.15-.15ZM339.32,3.2c.18-.07.4-.06.49.02.08.08-.07.14-.33.13-.3-.01-.36-.07-.15-.15ZM163.85,2.95c.18-.07.4-.06.49.02.08.08-.07.14-.33.13-.3-.01-.36-.07-.15-.15ZM336.01,2.95c.18-.07.4-.06.49.02.08.08-.07.14-.33.13-.3-.01-.36-.07-.15-.15ZM167.42,2.69c.18-.07.4-.06.49.02.08.08-.07.14-.33.13-.3-.01-.36-.07-.15-.15ZM332.45,2.69c.18-.07.4-.06.49.02.08.08-.07.14-.33.13-.3-.01-.36-.07-.15-.15ZM171.24,2.44c.18-.07.4-.06.49.02.08.08-.07.14-.33.13-.3-.01-.36-.07-.15-.15ZM328.63,2.44c.18-.07.4-.06.49.02.08.08-.07.14-.33.13-.3-.01-.36-.07-.15-.15ZM175.3,2.19c.18-.07.46-.07.64,0s.03.13-.32.13-.49-.06-.32-.13ZM324.54,2.19c.18-.07.46-.07.64,0s.03.13-.32.13-.49-.06-.32-.13ZM179.63,1.94c.18-.07.46-.07.64,0s.03.13-.32.13-.49-.06-.32-.13ZM320.21,1.94c.18-.07.46-.07.64,0s.03.13-.32.13-.49-.06-.32-.13ZM183.96,1.68c.18-.07.46-.07.64,0s.03.13-.32.13-.49-.06-.32-.13ZM315.62,1.68c.18-.07.46-.07.64,0s.03.13-.32.13-.49-.06-.32-.13ZM188.54,1.43c.18-.07.46-.07.64,0s.03.13-.32.13-.49-.06-.32-.13ZM311.04,1.43c.18-.07.46-.07.64,0s.03.13-.32.13-.49-.06-.32-.13ZM193.38,1.17c.18-.07.46-.07.64,0s.03.13-.32.13-.49-.06-.32-.13ZM306.08,1.16c.25-.06.59-.06.76,0,.17.07-.03.12-.45.12-.42,0-.56-.06-.31-.13ZM198.86.91c.25-.06.59-.06.76,0,.17.07-.03.12-.45.12-.42,0-.56-.06-.31-.13ZM300.85.92c.18-.07.46-.07.64,0s.03.13-.32.13-.49-.06-.32-.13ZM204.97.65c.25-.06.65-.06.89,0,.25.06.04.12-.45.12s-.69-.05-.45-.12ZM293.85.65c.25-.06.65-.06.89,0,.25.06.04.12-.45.12s-.69-.05-.45-.12ZM213.25.4c.32-.06.78-.06,1.02,0,.24.06-.02.11-.58.11-.56,0-.76-.05-.44-.12ZM284.55.4c.32-.06.83-.06,1.15,0s.06.11-.57.11-.89-.05-.57-.11ZM224.32.14c.39-.06,1.02-.06,1.4,0,.39.06.07.11-.7.11s-1.09-.05-.7-.11ZM270.3.13c.6-.05,1.52-.05,2.04,0,.52.05.03.1-1.09.1-1.12,0-1.55-.05-.95-.1Z"/>
      <path id="path7" class="cls-1" d="M228.53,499.8c.46-.06,1.15-.06,1.53,0,.38.06,0,.1-.83.1-.84,0-1.15-.05-.7-.11h0ZM270.3,499.8c.46-.06,1.15-.06,1.53,0,.38.06,0,.1-.83.1-.84,0-1.15-.05-.7-.11h0ZM212.1,499.55c.25-.06.65-.06.89,0,.25.06.04.12-.45.12s-.69-.05-.45-.12ZM287.23,499.55c.25-.06.65-.06.89,0,.25.06.04.12-.45.12s-.69-.05-.45-.12ZM203.31,499.31c.18-.07.46-.07.64,0s.03.13-.32.13-.49-.06-.32-.13ZM296.28,499.3c.18-.07.4-.06.49.02s-.07.14-.33.13c-.3-.01-.36-.07-.15-.15ZM317.17,498.28c.18-.07.4-.06.49.02s-.07.14-.33.13c-.3-.01-.36-.07-.15-.15ZM465.94,467.31s.37-.42.83-.83l.83-.75-.75.83c-.7.77-.91.94-.91.75ZM31.44,464.9c-.32-.4-.31-.41.1-.1.25.19.45.39.45.45,0,.21-.21.07-.54-.35ZM242.29,395.14c.18-.07.4-.06.49.02.08.08-.07.14-.33.13-.3-.01-.36-.07-.15-.15ZM174.3,394.63c.18-.07.4-.06.49.02.08.08-.07.14-.33.13-.3-.01-.36-.07-.15-.15ZM413.67,392.33c.32-.06.83-.06,1.15,0,.32.06.06.11-.57.11s-.89-.05-.57-.11ZM280.34,387.8c0-.42.06-.56.13-.31.06.25.06.59,0,.76-.07.17-.12-.03-.12-.45ZM409.17,382.69c.01-.3.07-.36.15-.15.07.18.06.4-.02.49s-.14-.07-.13-.33ZM256.53,369.15c.45-.06,1.25-.06,1.78,0,.53.06.16.1-.82.1-.98,0-1.41-.04-.96-.1h0ZM175.55,365.86c.18-.07.46-.07.64,0s.03.13-.32.13-.49-.06-.32-.13ZM182.18,365.86c.18-.07.46-.07.64,0s.03.13-.32.13-.49-.06-.32-.13ZM376.27,361.76c-.32-.4-.31-.41.1-.1.25.19.45.39.45.45,0,.21-.21.07-.54-.35ZM239.59,353.68c0-.42.06-.56.13-.31.06.25.06.59,0,.76-.07.17-.12-.03-.12-.45h0ZM279.54,350.09c.01-.3.07-.36.15-.15.07.18.06.4-.02.49s-.14-.07-.13-.33ZM124.51,346.93c0-.91.05-1.28.1-.83s.06,1.2,0,1.66-.1.08-.1-.83ZM407.64,345.51c.01-.3.07-.36.15-.15.07.18.06.4-.02.49s-.14-.07-.13-.33ZM333.1,343.11c0-1.33.04-1.88.1-1.21s.05,1.75,0,2.42-.1.12-.1-1.21ZM161.18,343.36c0-.77.05-1.09.11-.7.06.39.06,1.02,0,1.4s-.11.07-.11-.7ZM314.51,337.5c0-1.89.04-2.66.09-1.72.05.95.05,2.49,0,3.44-.05.95-.09.17-.09-1.72ZM369.75,339.54c0-.63.05-.89.11-.57s.06.83,0,1.15c-.06.32-.11.06-.11-.57ZM279.82,337.5c0-.35.06-.49.13-.32s.07.46,0,.64-.13.03-.13-.32ZM270.15,336.55c.94-.05,2.54-.05,3.57,0,1.02.05.25.09-1.71.09-1.96,0-2.8-.04-1.86-.09h0ZM407.99,324.26c0-3.57.04-5.03.08-3.25s.04,4.71,0,6.49-.08.32-.08-3.25ZM1.7,314.44c.01-.3.07-.36.15-.15.07.18.06.4-.02.49-.08.08-.14-.07-.13-.33ZM261.65,313.9c.18-.07.4-.06.49.02s-.07.14-.33.13c-.3-.01-.36-.07-.15-.15ZM274.13,313.9c.18-.07.4-.06.49.02s-.07.14-.33.13c-.3-.01-.36-.07-.15-.15ZM314.2,310.51c0-.35.06-.49.13-.32s.07.46,0,.64-.13.03-.13-.32ZM1.44,309.85c.01-.3.07-.36.15-.15.07.18.06.4-.02.49-.08.08-.14-.07-.13-.33ZM124.28,299.43c0-2.1.04-2.93.09-1.83.05,1.09.05,2.81,0,3.82-.05,1.01-.09.12-.09-1.99h0ZM499.07,296.35c.01-.3.07-.36.15-.15.07.18.06.4-.02.49s-.14-.07-.13-.33ZM.68,296.1c.01-.3.07-.36.15-.15.07.18.06.4-.02.49-.08.08-.14-.07-.13-.33ZM248.9,293.27c.32-.06.78-.06,1.02,0,.24.06-.02.11-.58.11-.56,0-.76-.05-.44-.12h0ZM254.63,293.27c.25-.06.65-.06.89,0,.25.06.04.12-.45.12s-.69-.05-.45-.12ZM499.34,288.86c0-.35.06-.49.13-.32s.07.46,0,.64-.13.03-.13-.32ZM.44,288.35c0-.35.06-.49.13-.32s.07.46,0,.64-.13.03-.13-.32ZM.2,277.78c0-.42.06-.56.13-.31.06.25.06.59,0,.76-.07.17-.12-.03-.12-.45ZM499.63,277.15c0-.63.05-.89.11-.57s.06.83,0,1.15c-.06.32-.11.06-.11-.57ZM248.91,264.5c.18-.07.4-.06.49.02.08.08-.07.14-.33.13-.3-.01-.36-.07-.15-.15ZM253.75,264.24c.18-.07.4-.06.49.02s-.07.14-.33.13c-.3-.01-.36-.07-.15-.15ZM-.04,262.38c0-.63.05-.89.11-.57s.06.83,0,1.15-.11.06-.11-.57ZM-.03,236.53c0-.7.05-.96.11-.57.06.39.06.96,0,1.27s-.11,0-.11-.7ZM160.92,234.75c0-.7.05-.96.11-.57.06.39.06.96,0,1.27-.06.31-.11,0-.11-.7h0ZM94.91,234.72c.01-.3.07-.36.15-.15.07.18.06.4-.02.49-.08.08-.14-.07-.13-.33h0ZM160.29,229.61c.18-.07.4-.06.49.02.08.08-.07.14-.33.13-.3-.01-.36-.07-.15-.15h0ZM499.62,223.79c0-.56.05-.76.12-.44.06.32.06.78,0,1.02-.06.24-.11-.02-.11-.58h0ZM.2,220.99c0-.42.06-.56.13-.31s.06.59,0,.76c-.07.17-.12-.03-.12-.45ZM74.07,212.29c.25-.06.59-.06.76,0,.17.07-.03.12-.45.12-.42,0-.56-.06-.31-.13h0ZM499.34,211.95c0-.35.06-.49.13-.32s.07.46,0,.64-.13.03-.13-.32ZM.44,211.19c0-.35.06-.49.13-.32s.07.46,0,.64-.13.03-.13-.32ZM.68,204.42c.01-.3.07-.36.15-.15.07.18.06.4-.02.49-.08.08-.14-.07-.13-.33ZM499.07,204.16c.01-.3.07-.36.15-.15.07.18.06.4-.02.49-.08.08-.14-.07-.13-.33ZM.93,199.32c.01-.3.07-.36.15-.15.07.18.06.4-.02.49-.08.08-.14-.07-.13-.33ZM498.3,189.14c.01-.3.07-.36.15-.15.07.18.06.4-.02.49-.08.08-.14-.07-.13-.33ZM176.33,2.18c.18-.07.4-.06.49.02.08.08-.07.14-.33.13-.3-.01-.36-.07-.15-.15ZM194.42,1.17c.18-.07.4-.06.49.02.08.08-.07.14-.33.13-.3-.01-.36-.07-.15-.15ZM200.02.91c.18-.07.4-.06.49.02.08.08-.07.14-.33.13-.3-.01-.36-.07-.15-.15ZM299.83.92c.18-.07.46-.07.64,0s.03.13-.32.13-.49-.06-.32-.13ZM206.38.66c.18-.07.4-.06.49.02.08.08-.07.14-.33.13-.3-.01-.36-.07-.15-.15ZM292.97.66c.18-.07.4-.06.49.02.08.08-.07.14-.33.13-.3-.01-.36-.07-.15-.15ZM214.77.41c.18-.07.46-.07.64,0s.03.13-.32.13-.49-.06-.32-.13ZM283.16.4c.25-.06.59-.06.76,0,.17.07-.03.12-.45.12-.42,0-.56-.06-.31-.13ZM227,.14c.46-.06,1.15-.06,1.53,0,.38.06,0,.1-.83.1-.84,0-1.15-.05-.7-.11ZM266.98.14c.46-.06,1.2-.06,1.66,0,.46.06.08.1-.83.1s-1.28-.05-.83-.1Z"/>
      <path id="path6" class="cls-1" d="M231.33,499.8c.46-.06,1.15-.06,1.53,0,.38.06,0,.1-.83.1-.84,0-1.15-.05-.7-.11h0ZM267.49,499.8c.46-.06,1.15-.06,1.53,0,.38.06,0,.1-.83.1-.84,0-1.15-.05-.7-.11h0ZM213.63,499.55c.25-.06.65-.06.89,0,.25.06.04.12-.45.12s-.69-.05-.45-.12ZM285.7,499.55c.25-.06.65-.06.89,0,.25.06.04.12-.45.12s-.69-.05-.45-.12ZM204.35,499.3c.18-.07.4-.06.49.02.08.08-.07.14-.33.13-.3-.01-.36-.07-.15-.15ZM295.25,499.31c.18-.07.46-.07.64,0s.03.13-.32.13-.49-.06-.32-.13ZM197.98,499.05c.18-.07.4-.06.49.02.08.08-.07.14-.33.13-.3-.01-.36-.07-.15-.15ZM301.63,499.05c.18-.07.4-.06.49.02s-.07.14-.33.13c-.3-.01-.36-.07-.15-.15ZM311.31,498.54c.18-.07.4-.06.49.02s-.07.14-.33.13c-.3-.01-.36-.07-.15-.15ZM33.73,467.2c-.32-.4-.31-.41.1-.1.42.33.56.54.35.54-.05,0-.25-.2-.45-.45ZM32.21,465.67c-.32-.4-.31-.41.1-.1.42.33.56.54.35.54-.05,0-.25-.2-.45-.45ZM241.53,395.14c.18-.07.4-.06.49.02.08.08-.07.14-.33.13-.3-.01-.36-.07-.15-.15ZM251.46,395.14c.18-.07.4-.06.49.02s-.07.14-.33.13c-.3-.01-.36-.07-.15-.15ZM380.32,395.14c.18-.07.4-.06.49.02s-.07.14-.33.13c-.3-.01-.36-.07-.15-.15ZM412.4,392.34c.18-.07.46-.07.64,0s.03.13-.32.13-.49-.06-.32-.13ZM91.96,329.86c0-34.39.03-48.45.07-31.26.04,17.19.04,45.33,0,62.52-.04,17.19-.07,3.13-.07-31.26ZM280.36,389.58c0-.7.05-.96.11-.57.06.39.06.96,0,1.27-.06.31-.11,0-.11-.7h0ZM276.2,383.79c1.06-1.12,1.28-1.33,1.28-1.14,0,.04-.54.59-1.21,1.21l-1.21,1.14,1.14-1.21ZM409.2,383.73c0-.42.06-.56.13-.31.06.25.06.59,0,.76-.07.17-.12-.03-.12-.45ZM405.33,383.22c.33-.35.66-.64.73-.64s-.14.29-.47.64-.66.64-.73.64.14-.29.47-.64ZM176.95,365.85c.39-.06,1.02-.06,1.4,0,.39.06.07.11-.7.11s-1.09-.05-.7-.11ZM180.27,365.85c.39-.06.96-.06,1.27,0,.31.06,0,.11-.7.11-.7,0-.96-.05-.57-.11h0ZM387.31,365.84c.53-.05,1.38-.05,1.91,0,.53.05.1.1-.96.1s-1.48-.04-.96-.1ZM124.5,349.73c0-.77.05-1.09.11-.7.06.39.06,1.02,0,1.4s-.11.07-.11-.7ZM279.54,349.33c.01-.3.07-.36.15-.15.07.18.06.4-.02.49s-.14-.07-.13-.33ZM333.08,346.67c0-.77.05-1.09.11-.7.06.39.06,1.02,0,1.4-.06.39-.11.07-.11-.7ZM407.64,344.74c.01-.3.07-.36.15-.15.07.18.06.4-.02.49s-.14-.07-.13-.33ZM161.2,338.52c0-2.03.04-2.86.09-1.85s.05,2.68,0,3.69-.09.18-.09-1.85ZM369.75,337.38c0-.7.05-.96.11-.57.06.39.06.96,0,1.27-.06.31-.11,0-.11-.7h0ZM314.51,331.27c0-1.68.04-2.34.09-1.45.05.88.05,2.26,0,3.06-.05.8-.09.08-.09-1.6h0ZM408,292.68c0-13.94.03-19.64.07-12.67s.04,18.37,0,25.34-.07,1.27-.07-12.67ZM274.89,313.9c.18-.07.4-.06.49.02s-.07.14-.33.13c-.3-.01-.36-.07-.15-.15ZM124.28,306.82c0-2.1.04-2.93.09-1.83.05,1.09.05,2.81,0,3.82-.05,1.01-.09.12-.09-1.99h0ZM314.2,309.49c0-.35.06-.49.13-.32s.07.46,0,.64-.13.03-.13-.32ZM273.4,299.11l-.88-.96.96.88c.89.82,1.07,1.03.88,1.03-.04,0-.47-.43-.96-.96ZM499.07,295.59c.01-.3.07-.36.15-.15.07.18.06.4-.02.49s-.14-.07-.13-.33ZM.7,295.23c0-.35.06-.49.13-.32s.07.46,0,.64-.13.03-.13-.32ZM251.19,293.26c.6-.05,1.57-.05,2.16,0s.11.1-1.08.1-1.68-.04-1.08-.1ZM499.34,287.84c0-.35.06-.49.13-.32s.07.46,0,.64-.13.03-.13-.32ZM.44,287.33c0-.35.06-.49.13-.32s.07.46,0,.64-.13.03-.13-.32ZM.21,276.38c0-.49.05-.69.12-.45s.06.65,0,.89c-.06.25-.12.04-.12-.45ZM499.62,275.24c0-.56.05-.76.12-.44.06.32.06.78,0,1.02-.06.24-.11-.02-.11-.58h0ZM332.84,269.64c0-1.26.04-1.81.1-1.22.05.59.05,1.62,0,2.29-.05.67-.1.19-.1-1.07h0ZM124.29,251.55c0-8.68.03-12.27.07-7.98.04,4.3.04,11.4,0,15.79-.04,4.39-.07.87-.07-7.81h0ZM-.03,259.96c0-.84.05-1.15.11-.7s.06,1.15,0,1.53c-.06.38-.1,0-.1-.83ZM421.24,234.62c0-8.75.03-12.34.07-7.96.04,4.38.04,11.54,0,15.92s-.07.8-.07-7.96ZM-.02,239.33c0-.98.05-1.35.1-.82.06.53.05,1.33,0,1.78-.06.45-.1.02-.1-.96ZM160.91,232.84c0-.49.05-.69.12-.45s.06.65,0,.89-.12.04-.12-.45ZM499.62,225.58c0-.56.05-.76.12-.44.06.32.06.78,0,1.02-.06.24-.11-.02-.11-.58h0ZM.2,222.27c0-.42.06-.56.13-.31s.06.59,0,.76c-.07.17-.12-.03-.12-.45ZM88.74,217.87c-.32-.4-.31-.41.1-.1.25.19.45.39.45.45,0,.21-.21.07-.54-.35ZM499.34,212.97c0-.35.06-.49.13-.32s.07.46,0,.64-.13.03-.13-.32ZM.44,212.21c0-.35.06-.49.13-.32s.07.46,0,.64-.13.03-.13-.32ZM.68,205.18c.01-.3.07-.36.15-.15.07.18.06.4-.02.49-.08.08-.14-.07-.13-.33ZM499.07,204.93c.01-.3.07-.36.15-.15.07.18.06.4-.02.49-.08.08-.14-.07-.13-.33ZM190.09,1.42c.18-.07.4-.06.49.02.08.08-.07.14-.33.13-.3-.01-.36-.07-.15-.15ZM304.69,1.17c.18-.07.4-.06.49.02.08.08-.07.14-.33.13-.3-.01-.36-.07-.15-.15ZM200.78.91c.18-.07.4-.06.49.02.08.08-.07.14-.33.13-.3-.01-.36-.07-.15-.15ZM299.08.91c.18-.07.4-.06.49.02.08.08-.07.14-.33.13-.3-.01-.36-.07-.15-.15ZM207.13.66c.18-.07.46-.07.64,0s.03.13-.32.13-.49-.06-.32-.13ZM291.94.66c.18-.07.46-.07.64,0s.03.13-.32.13-.49-.06-.32-.13ZM215.92.4c.25-.06.59-.06.76,0,.17.07-.03.12-.45.12-.42,0-.56-.06-.31-.13ZM281.62.4c.25-.06.65-.06.89,0,.25.06.04.12-.45.12s-.69-.05-.45-.12ZM229.93.14c.53-.05,1.38-.05,1.91,0s.1.1-.96.1-1.48-.04-.96-.1ZM263.66.14c.45-.06,1.25-.06,1.78,0,.53.06.16.1-.82.1-.98,0-1.41-.04-.96-.1h0Z"/>
      <path id="path5" class="cls-1" d="M235.15,499.8c1.02-.05,2.68-.05,3.69,0s.18.09-1.85.09-2.86-.04-1.85-.09ZM261.38,499.8c1.02-.05,2.68-.05,3.69,0s.18.09-1.85.09-2.86-.04-1.85-.09ZM215.15,499.55c.25-.06.65-.06.89,0,.25.06.04.12-.45.12s-.69-.05-.45-.12ZM284.05,499.55c.32-.06.78-.06,1.02,0,.24.06-.02.11-.58.11-.56,0-.76-.05-.44-.12h0ZM205.1,499.31c.18-.07.46-.07.64,0s.03.13-.32.13-.49-.06-.32-.13ZM294.5,499.3c.18-.07.4-.06.49.02s-.07.14-.33.13c-.3-.01-.36-.07-.15-.15ZM306.22,498.79c.18-.07.4-.06.49.02s-.07.14-.33.13c-.3-.01-.36-.07-.15-.15ZM188.56,498.54c.18-.07.4-.06.49.02.08.08-.07.14-.33.13-.3-.01-.36-.07-.15-.15ZM315.89,498.28c.18-.07.4-.06.49.02s-.07.14-.33.13c-.3-.01-.36-.07-.15-.15ZM178.88,498.03c.18-.07.4-.06.49.02.08.08-.07.14-.33.13-.3-.01-.36-.07-.15-.15ZM32.97,466.43c-.32-.4-.31-.41.1-.1.25.19.45.39.45.45,0,.21-.21.07-.54-.35ZM166.89,394.88c.32-.06.83-.06,1.15,0,.32.06.06.11-.57.11s-.89-.05-.57-.11ZM280.35,391.62c0-.56.05-.76.12-.44.06.32.06.78,0,1.02-.06.24-.11-.02-.11-.58h0ZM411.65,392.34c.18-.07.4-.06.49.02s-.07.14-.33.13c-.3-.01-.36-.07-.15-.15ZM314.69,391.86c.01-.3.07-.36.15-.15.07.18.06.4-.02.49s-.14-.07-.13-.33ZM403.29,385.29c0-.05.2-.25.45-.45.4-.32.41-.31.1.1-.33.42-.54.56-.54.35ZM409.19,384.87c0-.35.06-.49.13-.32s.07.46,0,.64-.13.03-.13-.32ZM179.13,365.85c.18-.07.4-.06.49.02.08.08-.07.14-.33.13-.3-.01-.36-.07-.15-.15ZM402.02,360.04c.33-.35.66-.64.73-.64s-.14.29-.47.64-.66.64-.73.64.14-.29.47-.64ZM124.49,351.77c0-.49.05-.69.12-.45s.06.65,0,.89-.12.04-.12-.45ZM333.07,348.84c0-.56.05-.76.12-.44.06.32.06.78,0,1.02-.06.24-.11-.02-.11-.58h0ZM279.57,348.33c0-.42.06-.56.13-.31.06.25.06.59,0,.76-.07.17-.12-.03-.12-.45ZM407.66,343.87c0-.35.06-.49.13-.32s.07.46,0,.64-.13.03-.13-.32ZM369.77,334.07c0-1.26.04-1.81.1-1.22.05.59.05,1.62,0,2.29-.05.67-.1.19-.1-1.07h0ZM161.2,331.14c0-2.17.04-3.06.09-1.97s.05,2.86,0,3.95-.09.2-.09-1.97ZM314.5,326.55c0-1.05.04-1.48.1-.96.05.53.05,1.38,0,1.91-.05.53-.1.1-.1-.96ZM1.95,318.26c.01-.3.07-.36.15-.15.07.18.06.4-.02.49-.08.08-.14-.07-.13-.33ZM124.28,314.2c0-2.1.04-2.93.09-1.83.05,1.09.05,2.81,0,3.82-.05,1.01-.09.12-.09-1.99h0ZM498.05,314.44c.01-.3.07-.36.15-.15.07.18.06.4-.02.49s-.14-.07-.13-.33ZM260.37,313.9c.18-.07.4-.06.49.02s-.07.14-.33.13c-.3-.01-.36-.07-.15-.15ZM498.81,300.68c.01-.3.07-.36.15-.15.07.18.06.4-.02.49s-.14-.07-.13-.33ZM499.07,294.83c.01-.3.07-.36.15-.15.07.18.06.4-.02.49s-.14-.07-.13-.33ZM.68,294.32c.01-.3.07-.36.15-.15.07.18.06.4-.02.49-.08.08-.14-.07-.13-.33ZM499.35,286.7c0-.42.06-.56.13-.31.06.25.06.59,0,.76-.07.17-.12-.03-.12-.45ZM.44,286.32c0-.35.06-.49.13-.32s.07.46,0,.64-.13.03-.13-.32ZM332.86,278.93c0-3.99.04-5.63.08-3.63s.04,5.26,0,7.26-.08.36-.08-3.63ZM.2,274.98c0-.42.06-.56.13-.31.06.25.06.59,0,.76-.07.17-.12-.03-.12-.45ZM499.63,273.33c0-.63.05-.89.11-.57s.06.83,0,1.15c-.06.32-.11.06-.11-.57ZM252.48,264.24c.18-.07.4-.06.49.02s-.07.14-.33.13c-.3-.01-.36-.07-.15-.15ZM-.02,256.9c0-.98.05-1.35.1-.82.06.53.05,1.33,0,1.78-.06.45-.1.02-.1-.96h0ZM-.01,243.4c0-1.4.04-1.94.1-1.2s.05,1.89,0,2.55c-.05.66-.09.06-.09-1.35h0ZM160.9,231.43c0-.42.06-.56.13-.31s.06.59,0,.76c-.07.17-.12-.03-.12-.45h0ZM499.63,227.61c0-.7.05-.96.11-.57.06.39.06.96,0,1.27-.06.31-.11,0-.11-.7h0ZM.21,223.67c0-.49.05-.69.12-.45s.06.65,0,.89c-.06.25-.12.04-.12-.45ZM499.35,214.12c0-.42.06-.56.13-.31s.06.59,0,.76-.12-.03-.12-.45ZM.44,213.23c0-.35.06-.49.13-.32s.07.46,0,.64-.13.03-.13-.32ZM.68,205.95c.01-.3.07-.36.15-.15.07.18.06.4-.02.49-.08.08-.14-.07-.13-.33ZM499.07,205.69c.01-.3.07-.36.15-.15.07.18.06.4-.02.49-.08.08-.14-.07-.13-.33ZM498.81,199.83c.01-.3.07-.36.15-.15.07.18.06.4-.02.49-.08.08-.14-.07-.13-.33ZM1.19,195.5c.01-.3.07-.36.15-.15.07.18.06.4-.02.49-.08.08-.14-.07-.13-.33ZM467.69,34.77c-.32-.4-.31-.41.1-.1.42.33.56.54.35.54-.05,0-.25-.2-.45-.45ZM464.64,31.71c-.32-.4-.31-.41.1-.1.42.33.56.54.35.54-.05,0-.25-.2-.45-.45ZM185.76,1.68c.18-.07.4-.06.49.02.08.08-.07.14-.33.13-.3-.01-.36-.07-.15-.15ZM309.27,1.42c.18-.07.4-.06.49.02.08.08-.07.14-.33.13-.3-.01-.36-.07-.15-.15ZM201.55.91c.18-.07.4-.06.49.02.08.08-.07.14-.33.13-.3-.01-.36-.07-.15-.15ZM298.05.92c.18-.07.46-.07.64,0s.03.13-.32.13-.49-.06-.32-.13ZM208.15.66c.18-.07.46-.07.64,0s.03.13-.32.13-.49-.06-.32-.13ZM290.8.65c.25-.06.59-.06.76,0,.17.07-.03.12-.45.12-.42,0-.56-.06-.31-.13ZM217.2.4c.25-.06.59-.06.76,0,.17.07-.03.12-.45.12-.42,0-.56-.06-.31-.13ZM279.71.4c.32-.06.83-.06,1.15,0s.06.11-.57.11-.89-.05-.57-.11ZM233.36.14c.45-.06,1.25-.06,1.78,0,.53.06.16.1-.82.1-.98,0-1.41-.04-.96-.1h0ZM259.85.13c.6-.05,1.57-.05,2.16,0s.11.1-1.08.1-1.68-.04-1.08-.1Z"/>
      <path id="path4" class="cls-1" d="M241.65,499.8c.67-.05,1.7-.05,2.29,0,.59.05.04.1-1.22.1-1.26,0-1.74-.04-1.07-.1h0ZM256.42,499.8c.67-.05,1.7-.05,2.29,0,.59.05.04.1-1.22.1-1.26,0-1.74-.04-1.07-.1h0ZM216.56,499.56c.18-.07.46-.07.64,0s.03.13-.32.13-.49-.06-.32-.13ZM283.04,499.56c.18-.07.4-.06.49.02s-.07.14-.33.13c-.3-.01-.36-.07-.15-.15ZM293.74,499.3c.18-.07.4-.06.49.02s-.07.14-.33.13c-.3-.01-.36-.07-.15-.15ZM165.24,394.88c.25-.06.65-.06.89,0,.25.06.04.12-.45.12s-.69-.05-.45-.12ZM168.68,394.89c.18-.07.46-.07.64,0s.03.13-.32.13-.49-.06-.32-.13ZM314.77,388.06c0-1.96.04-2.73.09-1.71.05,1.02.05,2.63,0,3.57-.05.94-.09.1-.09-1.86h0ZM409.17,385.74c.01-.3.07-.36.15-.15.07.18.06.4-.02.49s-.14-.07-.13-.33ZM124.47,353.04c0-.35.06-.49.13-.32s.07.46,0,.64-.13.03-.13-.32ZM161.38,351.36c.01-.3.07-.36.15-.15.07.18.06.4-.02.49-.08.08-.14-.07-.13-.33h0ZM333.04,350.24c0-.35.06-.49.13-.32s.07.46,0,.64-.13.03-.13-.32ZM279.56,347.18c0-.35.06-.49.13-.32s.07.46,0,.64-.13.03-.13-.32ZM243.74,343.87c.25-.28.52-.51.59-.51s-.08.23-.33.51-.52.51-.59.51.08-.23.33-.51ZM407.64,342.96c.01-.3.07-.36.15-.15.07.18.06.4-.02.49s-.14-.07-.13-.33ZM369.77,329.86c0-1.19.04-1.68.1-1.08.05.6.05,1.57,0,2.16s-.1.11-.1-1.08ZM161.2,324.77c0-1.47.04-2.07.09-1.34s.05,1.94,0,2.67-.09.13-.09-1.34ZM314.49,323.5c0-.77.05-1.09.11-.7.06.39.06,1.02,0,1.4-.06.39-.11.07-.11-.7ZM124.27,320.57c0-1.54.04-2.14.09-1.33.05.81.05,2.07,0,2.8-.05.73-.09.07-.09-1.47h0ZM332.86,290.9c0-2.73.04-3.85.08-2.48s.05,3.6,0,4.97-.08.25-.08-2.48ZM192.54,281.35c0-7.7.03-10.89.07-7.09s.04,10.11,0,14.01-.07.78-.07-6.92ZM.68,293.55c.01-.3.07-.36.15-.15.07.18.06.4-.02.49-.08.08-.14-.07-.13-.33ZM210.61,286.7c0-1.96.04-2.73.09-1.71.05,1.02.05,2.63,0,3.57-.05.94-.09.1-.09-1.86h0ZM499.32,285.66c.01-.3.07-.36.15-.15.07.18.06.4-.02.49s-.14-.07-.13-.33ZM.44,285.3c0-.35.06-.49.13-.32s.07.46,0,.64-.13.03-.13-.32ZM.2,273.71c0-.42.06-.56.13-.31.06.25.06.59,0,.76-.07.17-.12-.03-.12-.45ZM499.63,271.29c0-.63.05-.89.11-.57s.06.83,0,1.15c-.06.32-.11.06-.11-.57ZM0,250.53c0-2.66.04-3.72.08-2.34.05,1.37.05,3.55,0,4.84-.05,1.29-.08.17-.08-2.5h0ZM375.49,250.47c8.45-.04,22.2-.04,30.56,0s1.44.07-15.36.07c-16.81,0-23.65-.03-15.2-.07ZM499.62,229.65c0-.56.05-.76.12-.44.06.32.06.78,0,1.02-.06.24-.11-.02-.11-.58h0ZM.2,225.07c0-.42.06-.56.13-.31s.06.59,0,.76c-.07.17-.12-.03-.12-.45ZM499.32,215.11c.01-.3.07-.36.15-.15.07.18.06.4-.02.49-.08.08-.14-.07-.13-.33ZM.42,214.1c.01-.3.07-.36.15-.15.07.18.06.4-.02.49-.08.08-.14-.07-.13-.33ZM466.2,33.3c-.62-.63-1.07-1.15-1-1.15s.63.52,1.25,1.15,1.07,1.15,1,1.15-.63-.52-1.25-1.15ZM209.19.66c.18-.07.4-.06.49.02.08.08-.07.14-.33.13-.3-.01-.36-.07-.15-.15ZM289.92.66c.18-.07.4-.06.49.02.08.08-.07.14-.33.13-.3-.01-.36-.07-.15-.15ZM218.34.41c.18-.07.46-.07.64,0s.03.13-.32.13-.49-.06-.32-.13ZM278.44.41c.18-.07.46-.07.64,0s.03.13-.32.13-.49-.06-.32-.13ZM236.68.14c.46-.06,1.15-.06,1.53,0,.38.06,0,.1-.83.1-.84,0-1.15-.05-.7-.11ZM255.77.13c.6-.05,1.57-.05,2.16,0s.11.1-1.08.1-1.68-.04-1.08-.1Z"/>
      <path id="path3" class="cls-1" d="M245.97,499.8c.67-.05,1.75-.05,2.42,0s.12.1-1.21.1-1.88-.04-1.21-.1ZM251.83,499.8c.67-.05,1.75-.05,2.42,0s.12.1-1.21.1-1.88-.04-1.21-.1ZM217.57,499.56c.18-.07.46-.07.64,0s.03.13-.32.13-.49-.06-.32-.13ZM282.01,499.56c.18-.07.46-.07.64,0s.03.13-.32.13-.49-.06-.32-.13ZM206.64,499.3c.18-.07.4-.06.49.02.08.08-.07.14-.33.13-.3-.01-.36-.07-.15-.15ZM292.97,499.3c.18-.07.4-.06.49.02s-.07.14-.33.13c-.3-.01-.36-.07-.15-.15ZM164.36,394.89c.18-.07.4-.06.49.02.08.08-.07.14-.33.13-.3-.01-.36-.07-.15-.15ZM169.7,394.89c.18-.07.46-.07.64,0s.03.13-.32.13-.49-.06-.32-.13ZM409.17,386.51c.01-.3.07-.36.15-.15.07.18.06.4-.02.49s-.14-.07-.13-.33ZM314.77,380.16c0-2.52.04-3.52.08-2.22.05,1.3.05,3.37,0,4.58-.05,1.22-.08.15-.08-2.37h0ZM124.48,354.19c0-.42.06-.56.13-.31.06.25.06.59,0,.76-.07.17-.12-.03-.12-.45h0ZM333.06,351.51c0-.49.05-.69.12-.45.06.25.06.65,0,.89-.06.25-.12.04-.12-.45ZM161.38,350.6c.01-.3.07-.36.15-.15.07.18.06.4-.02.49-.08.08-.14-.07-.13-.33h0ZM279.57,346.04c0-.42.06-.56.13-.31.06.25.06.59,0,.76-.07.17-.12-.03-.12-.45ZM369.95,346.27c.01-.3.07-.36.15-.15.07.18.06.4-.02.49s-.14-.07-.13-.33ZM407.66,342.09c0-.35.06-.49.13-.32s.07.46,0,.64-.13.03-.13-.32ZM263.18,336.82c.18-.07.4-.06.49.02s-.07.14-.33.13c-.3-.01-.36-.07-.15-.15ZM124.27,326.17c0-1.68.04-2.34.09-1.45.05.88.05,2.26,0,3.06-.05.8-.09.08-.09-1.6h0ZM369.79,319.42c0-4.69.03-6.61.08-4.27.04,2.35.04,6.19,0,8.53s-.08.43-.08-4.27ZM161.2,319.04c0-1.82.04-2.53.09-1.58.05.95.05,2.44,0,3.31-.05.87-.09.09-.09-1.73h0ZM314.49,320.7c0-.91.05-1.28.1-.83s.06,1.2,0,1.66-.1.08-.1-.83ZM332.86,302.11c0-3.57.04-5.03.08-3.25s.04,4.71,0,6.49-.08.32-.08-3.25ZM210.61,293.32c0-1.82.04-2.53.09-1.58.05.95.05,2.44,0,3.31-.05.87-.09.09-.09-1.73h0ZM499.07,293.55c.01-.3.07-.36.15-.15.07.18.06.4-.02.49s-.14-.07-.13-.33ZM.68,292.79c.01-.3.07-.36.15-.15.07.18.06.4-.02.49-.08.08-.14-.07-.13-.33ZM499.35,284.66c0-.42.06-.56.13-.31.06.25.06.59,0,.76-.07.17-.12-.03-.12-.45ZM.45,284.15c0-.42.06-.56.13-.31.06.25.06.59,0,.76-.07.17-.12-.03-.12-.45ZM210.6,281.22c0-1.19.04-1.68.1-1.08.05.6.05,1.57,0,2.16s-.1.11-.1-1.08ZM.21,272.18c0-.56.05-.76.12-.44.06.32.06.78,0,1.02-.06.24-.11-.02-.11-.58ZM499.63,269.13c0-.7.05-.96.11-.57.06.39.06.96,0,1.27-.06.31-.11,0-.11-.7h0ZM64.26,267.28c5.08-.04,13.39-.04,18.46,0,5.08.04.92.07-9.23.07s-14.31-.03-9.23-.07ZM110.63,267.28c2.57-.04,6.69-.04,9.17,0s.38.08-4.66.08c-5.04,0-7.07-.03-4.5-.08h0ZM168.95,267.28c4.39-.04,11.49-.04,15.79,0,4.3.04.71.07-7.98.07-8.68,0-12.2-.03-7.81-.07ZM342.11,267.28c5.08-.04,13.39-.04,18.46,0,5.08.04.92.07-9.23.07s-14.31-.03-9.23-.07ZM417.24,267.28c5.08-.04,13.39-.04,18.46,0,5.08.04.92.07-9.23.07s-14.31-.03-9.23-.07ZM58.06,248.56l-.49-.57.57.49c.32.27.57.52.57.57,0,.2-.2.05-.66-.49ZM51.92,232.71c0-.7.05-.96.11-.57.06.39.06.96,0,1.27-.06.31-.11,0-.11-.7h0ZM499.63,231.82c0-.77.05-1.09.11-.7.06.39.06,1.02,0,1.4-.06.39-.11.07-.11-.7ZM.21,226.47c0-.49.05-.69.12-.45s.06.65,0,.89c-.06.25-.12.04-.12-.45ZM57.96,217.94c.48-.49.92-.89.99-.89s-.26.4-.74.89-.92.89-.99.89.26-.4.74-.89ZM499.35,216.15c0-.42.06-.56.13-.31s.06.59,0,.76-.12-.03-.12-.45ZM.42,214.86c.01-.3.07-.36.15-.15.07.18.06.4-.02.49-.08.08-.14-.07-.13-.33ZM499.07,206.96c.01-.3.07-.36.15-.15.07.18.06.4-.02.49-.08.08-.14-.07-.13-.33ZM34.78,32.06c0-.05.2-.25.45-.45.4-.32.41-.31.1.1-.33.42-.54.56-.54.35ZM322.26,2.18c.18-.07.4-.06.49.02.08.08-.07.14-.33.13-.3-.01-.36-.07-.15-.15ZM209.95.66c.18-.07.4-.06.49.02.08.08-.07.14-.33.13-.3-.01-.36-.07-.15-.15ZM288.88.66c.18-.07.46-.07.64,0s.03.13-.32.13-.49-.06-.32-.13ZM219.36.41c.18-.07.46-.07.64,0s.03.13-.32.13-.49-.06-.32-.13ZM277.42.41c.18-.07.46-.07.64,0s.03.13-.32.13-.49-.06-.32-.13ZM240.36.13c.94-.05,2.54-.05,3.57,0,1.02.05.25.09-1.71.09-1.96,0-2.8-.04-1.86-.09h0ZM251.58.13c.67-.05,1.7-.05,2.29,0,.59.05.04.1-1.22.1-1.26,0-1.74-.04-1.07-.1h0Z"/>
      <path id="path2" class="cls-1" d="M230.5,499.7c-20.63-.17-21.75-.2-40.62-1.14-35.62-1.77-68.14-5.13-95.88-9.91-13.62-2.34-31.68-6.39-37.68-8.44-5.54-1.89-10.99-4.45-14.53-6.82-8.35-5.59-13.82-11.78-18.29-20.66-3.38-6.72-4.81-11.37-7.79-25.34-4.39-20.56-8.36-47.63-10.84-73.85-.35-3.71-.81-8.58-1.02-10.82-.51-5.4-1.31-16.9-1.79-25.72-.21-3.92-.56-10.05-.77-13.62-.66-11.33-.91-21.91-1.06-45.59-.15-23.88.1-41.34.82-56.15.83-17.12,2.27-39.33,3.04-46.99.21-2.03.61-6.21.89-9.3,1.12-12.06,3.56-31.56,5.61-44.69,2.85-18.29,7.18-38.91,9.54-45.46,2.89-7.99,6.48-14.19,11.52-19.86,5.81-6.55,14.89-12.22,24.9-15.55,4.06-1.35,16.12-4.23,25.47-6.07C113.99,7.42,148.12,3.66,194.34,1.35c30.33-1.51,82.63-1.46,113.97.13,21.2,1.07,31.17,1.81,51.7,3.83,11.7,1.15,14.81,1.53,29.2,3.57,22.41,3.18,44.98,7.82,55.64,11.45,4.49,1.53,10.31,4.39,14.24,7.01,2.55,1.69,3.96,2.9,7.13,6.08,5.86,5.87,8.23,9.24,11.25,15.98,2.59,5.78,3.76,9.63,5.91,19.35,3.96,17.89,7.48,39.44,9.82,60.06.43,3.78.95,8.19,1.15,9.8,1.46,11.56,3.68,42.4,4.7,65.32.81,18.09.94,63.25.25,85.19-.33,10.53-1.59,33.36-2.42,43.93-1,12.72-2.12,25.2-2.53,28.27-.21,1.54-.78,6.47-1.27,10.95-2.18,19.74-5.75,41.44-9.84,59.82-2.58,11.58-4.61,17.32-8.6,24.28-4.45,7.77-12.74,15.5-21.05,19.64-6.79,3.38-11.16,4.86-21.76,7.39-27.32,6.5-60.68,11.1-101.87,14.04-3.99.29-10.75.69-15.03.91-4.27.21-9.77.5-12.22.63-13.17.71-41.07,1-72.2.74h0ZM254.82,395.08c2.2-.23,4-.71,7.89-2.1,4.38-1.56,8.52-4.24,12.67-8.23,1.66-1.59,3.35-3.38,3.77-3.98l.75-1.09.16,2.53c.09,1.39.17,4.28.19,6.41l.03,3.88h34.59l-.12-34.19c-.07-18.8-.22-38.32-.34-43.36-.22-9.04-.23-9.21-1.02-12.47-2.21-9.11-5.24-15.45-10.24-21.43-2.4-2.87-6.32-6.4-9.04-8.14-4.27-2.74-11.65-5.76-17.05-6.99-10.9-2.47-28.02-2.38-43.12.23-6.97,1.2-9.05,1.73-17.76,4.54-4.76,1.53-5.17,1.71-5.34,2.34-.23.84-.26,28.71-.03,28.94.09.09.51-.01.93-.23,1.05-.54,9.98-3.49,13.42-4.43,11.37-3.1,16.81-3.88,27.22-3.88,6.38,0,10.86.35,11.99.93.42.22,1.34.57,2.04.78,4.29,1.3,8.37,4.6,10.56,8.54,1.31,2.35,2.47,6.12,2.69,8.69l.17,2.01-.6-.2c-.33-.11-4.61-.25-9.51-.31-8.33-.11-9.3-.07-14.85.55-11.83,1.32-19.26,3.31-27.29,7.32-4.86,2.43-7.77,4.33-11.08,7.25q-1.76,1.55-3.33,3.4c-5,5.91-7.51,11.78-8.53,20-.29,2.38-.48,4.83-.41,5.46s.25,2.45.41,4.05c.58,6.08,1.88,10.12,4.99,15.57,1.21,2.13,1.92,2.95,5.53,6.5,3.63,3.57,4.44,4.23,6.64,5.43,3.98,2.18,7.74,3.74,10.49,4.35,1.4.31,2.74.67,2.97.79,1.22.64,14.96.98,19.56.5ZM252.1,368.72c-1.08-.21-2.91-.87-4.46-1.61-2.13-1.02-2.88-1.53-3.96-2.72-1.77-1.94-2.99-4.53-3.49-7.38-.51-2.94-.5-3.74.12-6.16,1.38-5.43,3.94-8.17,10.31-11.02,2.06-.92,5.65-1.99,8.79-2.62,1.56-.31,15.95-.59,18.44-.36l2,.19-.19,7.52c-.21,8.53-.43,9.76-2.46,13.57-2.26,4.24-4.38,6.39-8.44,8.53-3.72,1.97-4.77,2.21-10.12,2.32-3.3.07-5.26,0-6.54-.25h0ZM385.34,394.83c4.26-1.08,5.98-1.72,9.52-3.51,3.28-1.66,4.36-2.37,6.62-4.31,2.79-2.4,5.24-4.86,6.52-6.56.64-.85.76-.92.91-.51.09.26.25,2.97.35,6.04.1,3.06.24,5.71.31,5.89.07.18.48.4.91.48.43.09,8.33.16,17.56.16h16.78v-125.3l-18.4.07-18.4.07-.16,39.98c-.09,22.22-.27,40.55-.4,41.26-.13.7-.35,1.5-.5,1.78s-.34.89-.43,1.35c-.09.46-.51,1.65-.95,2.63-2.36,5.37-6.26,9.03-11.36,10.67-2.15.69-2.7.76-5.78.76-5.61,0-8.98-1.19-12.14-4.3-3.73-3.67-5.71-8.06-6.1-13.53-.12-1.75-.31-20.63-.41-41.96l-.19-38.77h-18.31c-16.55,0-18.32.04-18.46.41-.09.22-.04,20.31.11,44.63.26,43.82.27,44.25.82,47.02,1.75,8.88,4.76,16.21,8.68,21.14,3.23,4.07,9.14,9.02,12.98,10.87,1.58.76,5.98,2.5,6.33,2.5.12,0,.96.23,1.85.52.89.29,2.43.62,3.41.75,2.32.29,17.01.12,18.34-.22h0ZM173.71,394.8c6.62-.33,14.67-1.34,16.49-2.07l.7-.28v-27.77l-1.68.17c-.92.09-2.32.34-3.11.54-1.04.27-2.93.37-6.97.37-5.18,0-5.67-.04-7.52-.63-4.99-1.58-8.39-4.99-9.61-9.64-.52-2-.63-6.83-.8-35.38l-.15-24.64h31.62l-.07-14.07-.07-14.07-15.73-.07-15.73-.07v-18.72c0-15.99-.05-18.74-.36-18.86-.5-.19-7.44.89-15.04,2.34-1.12.21-3.7.66-5.73,1s-4.55.78-5.6.98c-4.7.93-6.37,1.23-8.21,1.48l-1.97.27v31.51h-18.08v28.27h18.08v13.94c.02,7.67.13,22.08.25,32.02l.22,18.08.78,3.39c1.54,6.66,2.8,9.98,5.41,14.25,2.42,3.96,4.96,6.79,8.38,9.35,5.02,3.75,10.57,6.19,16.28,7.13,1.33.22,3.22.57,4.2.78,2.92.63,6.75.73,14.01.37h0ZM92.02,329.93l-.06-62.59-18.4-.07-18.4-.07v125.3h36.93l-.06-62.59ZM79.1,253.61c1.05-.24,3.22-1.07,4.83-1.84,2.7-1.29,3.1-1.57,5.35-3.86,1.82-1.85,2.69-2.98,3.49-4.51,1.73-3.32,2.15-4.9,2.31-8.66.32-7.64-1.23-11.93-6.01-16.71-1.75-1.75-2.63-2.4-4.36-3.25-3.99-1.96-6.6-2.53-11.61-2.56-3.01-.02-3.58.06-5.98.77-4.81,1.43-7.83,3.31-10.53,6.55-1.71,2.05-2.27,3-3.42,5.74-1.06,2.55-1.4,5.91-1.06,10.55.28,3.79.36,4.11,1.72,6.82,1.63,3.24,4.44,6.47,7.11,8.18,1.71,1.09,5.4,2.52,7.09,2.75.71.09,1.45.28,1.66.41.6.39,7.26.12,9.41-.38h0ZM421.37,234.62c0-11.01-.08-16.04-.27-16.04-.43,0-14.08,2.29-14.57,2.44-.25.08-2.08.41-4.07.75-1.99.33-5.23.9-7.19,1.26s-5.51,1-7.89,1.42-5.88,1.05-7.77,1.39-7.02,1.23-11.4,1.96l-7.96,1.34v21.52h61.12v-16.04Z"/>
    </g>
  </g>
</svg>