<?xml version="1.0" encoding="UTF-8"?>
<svg id="Camada_1" data-name="Camada 1" xmlns="http://www.w3.org/2000/svg" viewBox="0 0 500 500">
  <defs>
    <style>
      .cls-1 {
        fill: #fff;
      }
    </style>
  </defs>
  <path class="cls-1" d="M250,76.87C111.97,76.87,0,150.4,0,240.31v9.69c0,95.59,97.93,173.13,250,173.13s250-77.54,250-173.13v-9.69c0-90.24-111.97-163.44-250-163.44ZM250.31,394.04c-133.02,0-240.64-68.85-240.64-153.74,0-6.35.62-12.61,1.79-18.77,4.35,1.02,11.27,3.32,14.26,3.98,68.52,15.37,89.57,30.75,93.58,34.09,4.34-4.68,10.36-7.69,17.05-7.69,7.69,0,14.37,3.68,18.38,9.69,4.01-3.01,9.36-5.68,16.38-5.68,3.01,0,6.35.67,9.69,1.67,7.69,2.67,11.7,7.69,13.7,12.37,2.67-1.34,5.68-2.01,9.36-2.01s7.69.67,11.36,2.34c12.7,5.35,14.71,17.71,13.37,27.07h2.67c15.04,0,27.07,12.03,27.07,27.07,0,4.68-1.34,9.02-3.34,12.7,4.01,2.34,14.37,7.35,23.4,6.35,7.35-1,10.03-3.34,11.03-4.68.67-1,1.34-2.01.67-3.01l-19.39-21.39s-3.34-3.01-2.01-4.01c1-1.34,3.01.67,4.34,1.67,9.69,8.36,21.72,20.72,21.72,20.72.33,0,1,1.67,5.35,2.34,3.68.67,10.7.33,15.37-3.68,1.34-1,2.34-2.34,3.34-3.34l-.33.33c5.01-6.35-.67-12.7-.67-12.7l-21.72-25.4s-3.34-3.01-2.01-4.34c1-1,3.01.67,4.34,1.67,7.02,6.02,17.38,16.04,26.74,25.4,2.01,1.34,10.36,6.68,21.72-.67,6.68-4.34,8.02-10.03,8.02-14.04-.33-5.35-4.68-9.36-4.68-9.36l-30.75-30.75s-3.34-2.67-2.01-4.34c1-1.34,3.01.67,4.34,1.67,9.69,8.36,36.43,32.42,36.43,32.42.33.33,9.69,6.68,20.72-.33,4.01-2.67,6.68-6.35,7.02-11.03.33-7.69-5.35-12.37-5.35-12.37-.67-.67-77.54-67.85-95.25-81.22-10.03-7.69-15.71-9.36-21.72-10.36-3.01-.33-7.35.33-10.36,1-8.02,2.34-18.72,9.36-28.07,16.71-9.69,7.69-19.05,15.04-27.41,17.05-11.03,2.34-24.06-.33-30.41-4.68-2.34-1.67-4.34-3.68-5.01-5.35-2.34-5.35,2.01-9.36,2.67-10.03l21.39-23.06,7.35-7.35c-6.68,1-13.03,2.67-19.39,4.34-7.69,2.34-15.04,4.34-22.73,4.34-3.01,0-19.72-2.67-23.06-3.68-18.98-4.99-35.64-10.33-60.89-21.93,44.07-32.77,109.36-53.52,182.21-53.52,76.78-.19,145.09,22.78,189.14,58.55-37.69,15.91-85.15,24.35-130.41,2.05-.33,0-24.73-11.7-49.13-11.03-36.1.67-51.8,16.38-68.52,33.09l-20.72,22.39c0,.33-2.67,2.67-1,4.68,3.68,5.01,15.37,7.69,27.41,5.01,7.02-1.67,16.04-8.69,24.73-15.71,9.36-7.69,19.05-15.04,28.41-18.05,10.03-3.34,16.38-1.67,20.72-.67,4.68,1.34,10.03,4.34,18.72,11.03,16.38,12.37,82.55,70.19,93.92,80.21,9.33-4,50.76-21.81,106.03-34.18.89,5.37,1.35,10.83,1.35,16.35,0,84.89-107.62,153.74-240.31,153.74Z"/>
  <path class="cls-1" d="M231.64,303.63c-4.68,0-10.03,2.67-10.7,2.34-.33-.33.33-2.01.67-3.34.33-1,6.68-20.05-8.69-26.4-11.7-5.01-18.72.67-21.39,3.34-.67.67-1,.67-1-.33-.33-3.34-1.67-12.7-11.7-15.71-14.37-4.34-23.73,5.68-26.07,9.36-1-8.36-8.02-14.71-16.38-14.71-9.36,0-16.71,7.35-16.71,16.71s7.35,16.71,16.71,16.71c4.34,0,8.69-1.67,11.7-4.68v.67c-.67,4.01-2.01,19.39,13.7,25.4,6.35,2.34,11.7.67,16.04-2.67,1.34-1,1.67-.67,1.34.67-.67,4.01,0,12.03,11.7,17.05,8.69,3.68,14.04,0,17.38-3.34,1.34-1.34,2.01-1,2.01,1,.33,11.36,9.69,20.05,21.06,20.05s21.06-9.36,21.06-21.06c.33-11.7-9.02-21.06-20.72-21.06Z"/>
</svg>