<?xml version="1.0" encoding="UTF-8"?>
<svg id="Camada_1" data-name="Camada 1" xmlns="http://www.w3.org/2000/svg" viewBox="0 0 500 500">
  <defs>
    <style>
      .cls-1 {
        fill: #fff;
      }
    </style>
  </defs>
  <path class="cls-1" d="M304.81,195.74c-30.69,0-55.67,24.34-55.67,54.27s24.97,54.26,55.67,54.26,55.67-24.34,55.67-54.26-24.97-54.27-55.67-54.27h0ZM304.81,278.66c-16.21,0-29.4-12.86-29.4-28.66s13.19-28.66,29.4-28.66,29.4,12.86,29.4,28.66-13.19,28.66-29.4,28.66Z"/>
  <path class="cls-1" d="M436.71,195.74c-34.73,0-62.99,27.54-62.99,61.4,0,16.37,6.54,31.78,18.43,43.37,1.22,1.19,2.67,2.13,4.26,2.78,1.59.65,3.3.98,5.02.98,1.73,0,3.43-.33,5.03-.97,1.59-.64,3.04-1.58,4.26-2.77,5.13-5,5.14-13.1.01-18.11-6.93-6.76-10.75-15.74-10.75-25.28,0-19.74,16.47-35.8,36.72-35.8s36.72,16.06,36.72,35.8c0,9.54-3.82,18.52-10.74,25.28-5.12,5-5.12,13.11.01,18.1,5.13,4.99,13.45,4.99,18.57-.01,11.88-11.6,18.42-27,18.42-43.37,0-33.86-28.26-61.4-62.99-61.4Z"/>
  <path class="cls-1" d="M63.42,195.74C28.69,195.74.43,223.28.43,257.14c0,16.37,6.54,31.78,18.42,43.38,5.12,5,13.44,5.01,18.57.01,5.13-5,5.14-13.1.01-18.11-6.93-6.76-10.75-15.74-10.75-25.28,0-19.74,16.47-35.8,36.72-35.8s36.72,16.06,36.72,35.8c0,9.54-3.82,18.52-10.75,25.28-5.12,5-5.12,13.11.01,18.11,1.22,1.19,2.67,2.13,4.26,2.77,1.59.64,3.3.97,5.03.97,1.73,0,3.43-.33,5.02-.98,1.59-.65,3.04-1.59,4.26-2.78,11.88-11.6,18.42-27,18.42-43.38,0-33.86-28.26-61.4-62.99-61.4h0Z"/>
  <path class="cls-1" d="M234.77,228.91c5.02-5.11,4.84-13.21-.4-18.1-10.42-9.73-24.09-15.08-38.5-15.08-30.69,0-55.67,24.34-55.67,54.27s24.97,54.26,55.67,54.26c14.41,0,28.08-5.36,38.5-15.08,5.24-4.89,5.42-12.99.4-18.1s-13.33-5.28-18.57-.39c-5.5,5.14-12.72,7.97-20.33,7.97-16.21,0-29.4-12.86-29.4-28.66s13.19-28.66,29.4-28.66c7.6,0,14.82,2.83,20.33,7.97,5.24,4.89,13.55,4.72,18.57-.39h0Z"/>
  <path class="cls-1" d="M195.87,262.79c7.25,0,13.12-5.73,13.12-12.79s-5.88-12.79-13.12-12.79-13.12,5.73-13.12,12.79,5.88,12.79,13.12,12.79Z"/>
</svg>