<?xml version="1.0" encoding="UTF-8"?>
<svg id="Camada_1" data-name="Camada 1" xmlns="http://www.w3.org/2000/svg" viewBox="0 0 500 500">
  <defs>
    <style>
      .cls-1 {
        fill: #fff;
      }
    </style>
  </defs>
  <path id="path2" class="cls-1" d="M90.26,138.38c15.81-16.61,36.78-26.31,61.42-26.31,48,0,79.83,35.05,85.91,87.55,1.97,17.05,1.96,41.09,1.94,68.93,0,2.86,0,5.75,0,8.68v104.3h-66.01v-77.14s-.13-66.03-.54-78.36c-1.77-53.74-33.59-87.51-82.73-87.55-14.83,15.66-22.77,34.82-23.94,64.1-.16,4.08-.12,18.56-.07,37.64.03,9.89.06,21.01.07,32.56.05,50.28,0,108.76,0,108.76H.3v-118.73c0-4.07-.07-8.17-.15-12.29-.15-8.29-.3-16.63.15-24.9.75-13.78,3.13-27.33,9.56-39.92,14.72-28.83,44.88-47.4,77.04-47.4,1.12,0,2.25.03,3.36.07h0Z"/>
  <path id="path4" class="cls-1" d="M499.7,274.37c.45-8.27.3-16.62.15-24.9-.07-4.12-.15-8.22-.15-12.29v-118.73h-66.01s-.05,58.48,0,108.76c0,11.55.04,22.67.07,32.56.05,19.08.09,33.56-.07,37.64-1.17,29.29-9.12,48.44-23.94,64.1-49.14-.03-80.96-33.81-82.73-87.55-.4-12.34-.57-42.96-.57-78.43v-77.14l-65.96.06v104.3c0,2.93,0,5.83,0,8.68-.02,27.84-.04,51.88,1.94,68.93,6.08,52.5,37.9,87.55,85.9,87.55,24.64,0,45.61-9.7,61.43-26.31,1.11.04,2.23.07,3.36.07,32.16,0,62.32-18.56,77.04-47.4,6.43-12.59,8.81-26.13,9.56-39.92h0Z"/>
</svg>