<?xml version="1.0" encoding="UTF-8"?>
<svg id="Camada_1" data-name="Camada 1" xmlns="http://www.w3.org/2000/svg" viewBox="0 0 500 500">
  <defs>
    <style>
      .cls-1 {
        fill: #fff;
        fill-rule: evenodd;
      }
    </style>
  </defs>
  <g id="PORTUGUES">
    <g id="ICONS">
      <path id="Combined-Shape" class="cls-1" d="M453.84,188.02c8.47,0,15.33,6.84,15.33,15.27h0v164.17c0,5.45-2.92,10.49-7.66,13.23h0l-203.87,117.27c-2.37,1.36-5.02,2.04-7.66,2.04s-5.29-.68-7.65-2.04h0l-203.81-117c-4.75-2.73-7.68-7.77-7.68-13.23h0v-164.09c0-8.43,6.87-15.27,15.33-15.27s15.32,6.84,15.32,15.27h0v155.27l188.48,108.19,188.55-108.45v-155.35c0-8.43,6.86-15.27,15.33-15.27ZM242.35,2.05c4.74-2.74,10.6-2.74,15.34,0h0l203.81,117.23c4.74,2.73,7.66,7.77,7.66,13.23s-2.92,10.5-7.66,13.23h0l-203.87,117.27c-2.37,1.36-5.02,2.04-7.67,2.04s-5.28-.68-7.65-2.04h0L38.51,146.01c-4.75-2.73-7.67-7.77-7.68-13.22,0-5.46,2.92-10.5,7.66-13.23h0L242.35,2.05ZM250.04,32.91l-173.22,99.84,173.14,99.39,173.22-99.63L250.04,32.91Z"/>
    </g>
  </g>
</svg>