<?xml version="1.0" encoding="UTF-8"?>
<svg id="Camada_1" data-name="Camada 1" xmlns="http://www.w3.org/2000/svg" viewBox="0 0 500 500">
  <defs>
    <style>
      .cls-1 {
        fill: #fff;
      }
    </style>
  </defs>
  <path class="cls-1" d="M480.91,154.35C428.09,26.83,281.89-33.74,154.36,19.09,26.83,71.91-33.73,218.11,19.09,345.65c52.83,127.52,199.02,188.09,326.55,135.26h.01c127.52-52.84,188.08-199.04,135.26-326.57ZM249.97,13.94h.06v-.35c110.42.12,199.9,89.65,200.02,200.08v.29c0,8.45-.53,16.72-1.53,24.88-20.89-21.65-50.17-35.09-82.61-35.15-1.94,0-3.93.06-5.87.18-32.92-44.3-85.66-72.99-145.1-72.87-72.7.12-135.3,43.24-163.76,105.26-.82-7.33-1.23-14.79-1.23-22.3C49.95,103.48,139.49,13.94,249.97,13.94ZM215.18,476h-3.05c-91-.82-164.05-75.28-163.23-166.22.06-5.16.35-10.27.88-15.31.47-5.05,1.23-10.03,2.23-14.9,1.06-5.52,2.41-10.97,4.05-16.25,20.65-68.18,84.26-117.46,159.12-116.76,50.34.65,95.29,23.94,125.03,60.08-51.1,11.68-89.18,57.38-89.18,111.95,0,36.73,17.25,69.41,44.06,90.36,3.34,2.76,6.92,5.22,10.62,7.45,2.17,1.35,4.4,2.64,6.69,3.81,5.52,2.93,11.27,5.4,17.25,7.33-29.28,29.45-69.7,47.88-114.47,48.46ZM365.79,417.85c-1.64,0-3.34-.06-4.99-.12-3.11-.18-6.22-.47-9.21-.94-3.58-.47-7.04-1.17-10.44-2.05-2.52-.65-4.99-1.41-7.39-2.23-2.64-.88-5.16-1.88-7.69-2.93-4.05-1.82-7.92-3.81-11.68-6.1-28.69-17.43-47.82-48.93-47.76-84.9,0-49.58,36.38-90.65,83.84-98.04,3.52-.53,7.1-.88,10.68-1.06,1.53-.06,3.11-.12,4.69-.12s3.11.06,4.64.12c30.45,1.41,57.32,16.55,74.52,39.37,2.29,2.99,4.4,6.1,6.28,9.33,1.76,2.93,3.4,5.98,4.75,9.15,5.81,12.56,9.04,26.58,9.04,41.31,0,54.8-44.47,99.22-99.28,99.22Z"/>
</svg>