<?xml version="1.0" encoding="UTF-8"?>
<svg id="Camada_1" data-name="Camada 1" xmlns="http://www.w3.org/2000/svg" viewBox="0 0 500 500">
  <defs>
    <style>
      .cls-1 {
        fill: #fff;
      }
    </style>
  </defs>
  <path id="path2" class="cls-1" d="M359.58,230.18c-1.14-18.05-5.71-36.09-14.84-51.73l-77.62-143.16c-5.71-10.83-10.27-22.86-12.56-34.89l-3.42,6.02c-19.41,34.89-19.41,79.4,0,114.29l62.78,114.29c19.41,34.89,19.41,79.4,0,114.29l-3.42,6.02c-2.28-12.03-6.85-24.06-12.56-34.89l-57.08-104.67-36.53-67.37c-5.71-10.83-10.27-22.86-12.56-34.89l-3.42,6.02c-19.41,34.89-19.41,78.2,0,114.29l62.78,114.29c19.41,34.89,19.41,79.4,0,114.29l-3.42,6.02c-2.28-12.03-6.85-24.06-12.56-34.89l-78.76-143.16c-10.27-19.25-14.84-40.9-14.84-62.56C58.22,250.64,0,299.96,0,356.51c0,79.4,111.87,143.16,249.99,143.16s249.99-63.76,249.99-143.16c1.14-54.14-55.93-103.46-140.41-126.32h0Z"/>
</svg>