<?xml version="1.0" encoding="UTF-8"?>
<svg id="Camada_1" data-name="Camada 1" xmlns="http://www.w3.org/2000/svg" viewBox="0 0 500 500">
  <defs>
    <style>
      .cls-1 {
        fill: #64c832;
      }

      .cls-2 {
        fill: #146e37;
      }
    </style>
  </defs>
  <g id="g8">
    <path id="path2" class="cls-2" d="M323.39,155.95c-.11,20.49-5.81,30.82-12.88,31.58-4.62.52-9.96-3.06-14.8-10.48-15.86-24.29-33.2-47.45-51.63-70.18,0-.04.03-.09.04-.14,7.15-35.86,18.59-72.44,38.17-104.25,24.49,46.05,41.4,102.26,41.1,153.47M231.45,154.76c17.31,14.47,22.05,26.03,18.18,32.31-2.53,4.13-8.85,6.08-18.11,5.06-31.03-3.41-61.98-4.74-93.31-4.96-.03-.04-.07-.09-.1-.13-29.58-32.82-56.32-69.8-73.51-109.72,58.59,12.94,122.01,39.98,166.84,77.43M172.35,229.61c23.13-4.56,35.78-.8,38.61,6.32,1.87,4.66-.44,10.92-7,17.59-21.65,22.04-41.51,45.21-60.56,69.33h-.18c-46.64,3.21-95.15,1.42-140.66-9.18,46.38-38.3,109.23-72.15,169.79-84.06M198.77,321.93c10.11-20.08,20.92-27.63,28.35-25.53,4.88,1.37,8.47,6.88,9.78,15.73,4.16,27.95,10.18,55.35,17.53,82.79-.03.03-.07.08-.1.13-25.36,33.59-52.59,65.91-86.73,92.22-4.05-54.28,6.5-116.37,31.17-165.34M286.38,354.89c-9.01-18.39-8.33-30.84-2.23-35.17,4.01-2.81,10.38-2.27,17.82,1.82,22.68,12.49,46.04,24.15,70.55,33.42,0,.03.01.08.03.13,8.81,34.34,13.93,70.37,11.68,105.73-40.79-24.93-77.81-65.04-97.84-105.94M363.52,309.62c-18.66-3.86-27.59-11.65-27.01-18.74.37-4.66,4.72-9.12,12.35-12.29,23.45-9.7,46.61-20.39,68.42-33.17.03.03.08.04.11.05,28.89,13.76,56.66,31.22,78.97,53.34-40.58,14.74-90.83,19.46-132.85,10.8M378.8,224.23c-14.78,12.07-26.15,14.11-31.13,9.2-3.27-3.21-3.92-9.41-1.44-17.42,7.83-25.44,13.93-51.1,18.98-77.21.04,0,.1-.03.14-.04,29.76-13.01,59.67-24.93,92.72-28.16-15.62,41.62-43.93,84.8-79.28,113.63"/>
    <path id="path4" class="cls-1" d="M282.27,2.49c-19.58,31.8-31.02,68.37-38.17,104.23-.01.05-.03.09-.04.14-4.91-5.96-11.43-13.14-17.07-19.68-21.38-24.82-44.99-48.07-68.9-70.87C197.32,1.63,240.42-3.19,282.27,2.49M0,197.06c36.58-4.17,73.33-7.98,109.73-9.14,9.41-.3,20.08-.75,28.5-.76-.04-.04-.07-.09-.11-.13-29.57-32.82-56.31-69.79-73.51-109.71C32,110.95,9.71,152.68,0,197.06M72.05,430.36c17.21-29.24,35.32-58.23,55.16-85.53,5.27-7.25,11.19-15.58,16.16-21.99-.06.01-.11.01-.17.01-46.63,3.21-95.13,1.42-140.64-9.16,11.65,43.76,35.52,84.5,69.48,116.67M291.61,496.37c-11.07-26.04-21.69-52.24-30.15-78.66-2.35-7.34-5.11-15.89-7.04-22.8-.03.05-.07.08-.1.13-25.36,33.59-52.59,65.91-86.73,92.22,41.23,11.25,81.28,16.56,124.02,9.11M462.74,382.61c-23.78-5.61-47.47-11.99-70.23-20.34-6.47-2.41-14.02-4.93-20.01-7.29,0,.03.01.08.03.13,8.81,34.34,13.93,70.37,11.68,105.71,32.04-20.21,58.91-47.16,78.53-78.2M494.63,193.42c-19.09,14.63-38.73,28.83-59.48,41.23-5.78,3.47-12.38,7.65-17.88,10.76.03.03.07.04.11.05,28.89,13.76,56.64,31.2,78.97,53.31,5.31-36.53,4.88-69-1.73-105.36M376.58,34.83c-1.74,27.37-3.86,54.8-7.83,81.57-1.07,7.27-2.3,15.73-3.51,22.4.04-.01.08-.04.12-.05,29.77-13,59.66-24.92,92.71-28.16-20.78-30.48-48.6-56.65-81.49-75.77"/>
  </g>
</svg>